<svg width="661" height="827" viewBox="0 0 661 827" fill="none" xmlns="http://www.w3.org/2000/svg">
<rect x="0.487305" width="660.513" height="809" rx="30" fill="#F62B1E" fill-opacity="0.72"/>
<path fill-rule="evenodd" clip-rule="evenodd" d="M379.311 641.651C382.399 629.479 385.226 624.228 390.671 619.739C395.765 615.541 403.194 611.827 414.029 608.795C425.314 606.136 425.649 600.193 428.499 590.506C429.33 587.595 433.422 586.591 435.182 588.55C435.43 588.265 435.69 588.001 435.959 587.761C435.722 586.41 437.698 582.381 437.637 581.079C436.983 567.492 441.411 560.387 452.428 557.193C454.823 556.498 471.091 555.211 473.424 555.724C483.625 557.973 493.652 566.433 492.089 577.43C495.283 581.472 498.412 583.869 503.353 584.94C514.35 585.702 525.348 586.307 536.349 586.732C557.881 588.872 578.05 599.199 591.813 615.184C593.082 616.66 593.445 618.743 592.318 620.463C593.189 624.221 598.122 633.168 594.217 636.01C600.591 651.123 615.27 680.195 615.278 688.75C615.309 724.68 611.355 771.687 576.21 793.648C574.801 795.128 574.596 796.684 573.983 798.797C572.424 805.431 566.809 810.438 560.676 810.419C530.458 812.883 501.2 810.887 470.983 812.493C457.658 813.201 441.628 816.157 430.047 818.179C418.469 820.203 406.786 819.71 395.686 816.942C394.745 818.488 392.849 819.468 390.929 819.153C379.418 817.522 370.121 810.901 362.029 803.542C359.561 799.133 349.912 786.724 353.771 781.979C350.319 767.285 350.538 751.267 356.77 736.714C355.897 734.165 357.506 731.212 356.789 728.571C356.27 726.658 354.933 725.933 354.263 724.049C353.32 721.397 354.361 717.702 355.436 714.875C355.876 713.473 354.637 712.064 354.294 710.68C352.67 704.148 356.422 704.51 359.14 699.918C359.098 699.907 358.403 696.786 358.406 696.801C357.998 694.568 359.042 691.612 359.952 689.674C360.566 688.363 361.879 687.489 363.182 687.558C361.881 683.136 360.23 679.491 358.457 675.26C355.32 667.807 351.344 660.726 346.831 654.077C344.983 651.355 347.482 647.927 350.485 647.557C360.202 646.358 369.817 644.377 379.311 641.651Z" fill="white"/>
<path fill-rule="evenodd" clip-rule="evenodd" d="M407.64 698C411.527 696.233 415.713 695.137 419.918 694.56C417.655 694.293 415.385 694.04 413.097 693.977C411.501 693.934 410.021 694.035 408.817 695.327C408.014 696.189 407.637 697.26 407.108 698.255C407.281 698.166 407.46 698.081 407.64 698ZM365.978 686.086C372.339 686.037 378.705 687.188 384.452 689.614C386.805 690.608 388.935 692.12 389.553 694.774C389.866 696.13 389.784 697.555 389.613 698.953C389.485 700.013 389.45 701.357 388.543 702.122C388.388 702.252 388.222 702.354 388.05 702.431C390.171 703.273 392.19 704.315 393.984 705.406C395.622 706.403 397.308 707.99 398.06 709.847C398.124 709.627 398.188 709.422 398.251 709.228C399.553 705.299 401.548 702.024 404.688 699.718C404.134 699.499 403.753 698.927 403.934 698.095C404.687 694.619 407.835 691.451 411.38 691.455C415.265 691.455 419.434 692.637 422.943 694.233C424.223 694.129 425.501 694.072 426.764 694.053C426.982 694.048 426.97 694.346 426.764 694.383C425.739 694.574 424.713 694.78 423.688 695.01C421.252 695.547 418.823 696.19 416.446 696.95C413.594 697.862 410.644 698.782 407.978 700.239C402.806 703.069 399.593 709.86 400.236 715.567C400.343 716.502 400.697 719.328 401.993 718.958C403.088 718.646 403.529 716.314 403.913 715.439C404.943 713.111 406.794 711.52 409.01 710.388C411.612 709.056 414.396 708.095 417.094 707.009C418.622 706.391 420.15 705.771 421.681 705.158C423.247 704.525 424.737 703.688 426.404 703.97C427.41 704.14 427.523 705.345 426.957 706.072C426.094 707.182 424.816 707.569 423.576 708.078C421.94 708.747 420.306 709.418 418.673 710.088C416.148 711.121 413.504 712.024 411.041 713.254L411.119 713.427C411.318 713.358 411.554 713.545 411.513 713.796C411.139 716.11 410.621 718.79 411.185 721.05C411.629 722.845 413.207 724.766 415.265 724.11C414.942 723.831 414.823 723.326 415.042 722.838C415.862 721.034 426.545 713.469 427.491 715.988C427.522 716.079 427.424 716.152 427.346 716.143C426.536 716.02 425.174 717.496 424.525 717.976C423.587 718.67 422.634 719.348 421.705 720.058C420.69 720.833 419.698 721.644 418.732 722.475C417.971 723.13 417.398 723.797 416.527 724.157C416.983 724.349 417.344 724.735 417.496 725.247C417.886 726.58 418.641 727.686 419.957 728.207C421.334 728.749 422.89 728.265 424.341 728.332C426.32 728.417 428.044 729.265 429.484 730.536C432.505 733.211 434.013 738.152 438.245 739.251C440.773 739.907 443.581 739.233 446.143 738.719C449.005 738.141 451.792 737.655 454.672 737.911C457.43 738.155 460.033 738.965 462.55 739.991C464.91 740.955 467.518 742.048 469.608 743.567C470.043 742.199 470.482 740.846 470.815 739.456C471.602 736.169 472.03 732.842 472.141 729.506C472.244 726.332 472.075 723.158 471.812 720.019C471.683 718.45 471.476 716.893 471.346 715.324C471.313 714.931 471.244 714.509 471.192 714.088C467.456 712.08 463.531 710.606 459.573 709.082C459.562 709.079 459.552 709.073 459.54 709.07C459.417 709.02 459.3 708.974 459.177 708.929C459.18 708.921 459.183 708.914 459.19 708.907C458.737 708.653 458.423 708.3 458.234 707.892C452.535 704.408 447.775 699.473 444.23 693.598C442.746 691.135 441.316 688.573 439.371 686.455C437.299 684.192 434.836 682.922 431.785 682.364C428.217 681.712 424.541 681.411 420.886 681.333C418.89 681.292 416.658 681.175 414.482 681.314C412.966 681.413 411.482 681.631 410.119 682.092C408.1 682.769 406.917 684.387 405.647 686.027C404.433 687.602 403.225 689.177 402.092 690.809C401.019 692.355 400.003 693.948 399.122 695.609C398.594 696.604 398.103 697.624 397.69 698.671C397.546 699.041 397.356 699.463 397.267 699.844C397.178 700.228 397.338 700.619 396.918 700.643C398.654 700.566 398.631 703.369 396.903 703.367C390.146 703.37 399.86 689.481 401.279 687.543C403.289 684.795 405.363 681.245 408.573 679.834C408.62 679.815 408.668 679.793 408.715 679.777C407.783 678.939 407.048 677.913 406.347 676.867C405.622 675.791 404.76 674.56 404.524 673.245C404.374 672.409 405.417 671.865 405.91 672.577C406.627 673.613 406.971 674.96 407.506 676.115C408.05 677.288 408.715 678.385 409.238 679.569C410.505 679.1 411.874 678.84 413.268 678.698C411.516 676.4 408.522 671.943 408.162 671.37C406.506 668.713 404.93 665.966 403.425 663.211C401.796 660.226 400.404 657.099 398.846 654.074C397.962 652.36 397.073 650.632 396.09 648.975C395.751 648.407 395.387 647.841 394.975 647.33C394.895 647.23 394.792 647.147 394.698 647.052C394.59 646.998 394.477 646.937 394.414 646.906C393.847 646.611 393.648 645.857 393.25 645.396C392.613 644.651 391.862 644.603 390.901 644.648C388.851 644.747 386.795 644.951 384.75 645.128C381.741 645.391 378.738 645.687 375.733 646.025C374.824 646.128 373.919 646.231 373.01 646.342C368.64 646.861 364.274 647.462 359.917 648.141C356.065 648.738 352.21 649.572 348.352 650.09C353.545 662.303 359.305 674.256 365.831 685.734C365.897 685.849 365.947 685.967 365.978 686.086ZM394.872 716.633C395.713 716.973 396.529 717.41 397.29 717.918C397.166 717.065 397.137 716.16 397.174 715.248C396.544 715.963 395.74 716.401 394.872 716.633ZM358.971 697.216C359.031 697.219 359.088 697.248 359.116 697.306C360.276 699.662 359.781 702.401 357.875 704.415C356.876 705.466 354.701 706.714 354.766 708.338C354.823 709.652 356.242 710.674 356.846 711.726C357.408 712.705 357.616 713.805 357.162 714.93C356.579 716.37 354.96 717.025 354.402 718.438C353.697 720.233 354.831 722.28 355.628 723.76C356.369 725.129 357.327 726.486 357.961 727.942C362.235 729.925 366.055 733.128 369.337 736.416C372.932 740.011 376.013 744.309 381.737 743.859C382.308 743.813 382.743 744.093 383.002 744.498C384.595 744.479 386.191 744.417 387.784 744.33C390.585 744.178 393.385 743.986 396.182 743.732C396.38 743.037 396.239 742.117 396.251 741.54C396.29 739.678 396.313 737.822 396.394 735.957C396.417 735.44 396.439 734.917 396.461 734.398C395.45 736.296 393.483 737.248 391.244 737.253C387.643 737.252 384.024 736.871 380.461 736.546C378.583 736.377 376.71 736.169 374.84 735.939C373.305 735.754 371.135 735.952 370.065 734.772C369.812 734.497 369.8 733.966 370.197 733.748C371.261 733.158 371.93 733.412 373.099 733.571C374.523 733.765 375.951 733.947 377.382 734.111C380.129 734.43 382.881 734.715 385.643 734.944C387.213 735.074 388.789 735.201 390.365 735.282C391.74 735.35 393.289 735.46 394.401 734.35C396.642 732.107 395.398 728.643 393.988 726.593C393.96 726.553 393.96 726.515 393.972 726.479C392.639 726.241 391.309 725.952 389.984 725.77C387.434 725.425 384.866 725.159 382.295 724.939C377.012 724.489 371.693 724.3 366.382 724.108C365.065 724.056 365.057 721.969 366.387 722.014C374.018 722.268 381.687 722.485 389.214 723.525C391.1 723.783 392.974 724.089 394.835 724.451C395.717 724.618 396.659 724.906 397.583 724.863C397.638 724.86 397.694 724.857 397.751 724.848C399.558 724.686 399.824 723.109 398.835 721.867C398.713 721.715 398.587 721.563 398.456 721.419C396.707 719.411 394.525 718.13 392.276 716.803C389.752 716.605 387.239 715.981 384.769 715.56C378.675 714.517 372.579 713.474 366.48 712.436C365.285 712.23 365.797 710.344 366.993 710.546C371.623 711.332 376.253 712.118 380.881 712.904L387.657 714.056C389.01 714.283 390.701 714.803 392.294 714.934C393.079 714.997 393.841 714.965 394.53 714.762C396.752 714.1 396.871 711.291 395.917 709.684C394.847 707.877 392.821 706.828 391.023 705.875C387.908 704.221 384.593 703.094 381.354 701.764C380.778 701.669 380.204 701.575 379.628 701.482C376.283 700.935 372.458 700.797 369.311 699.619C368.366 699.271 368.887 697.739 369.82 697.705C372.265 697.615 374.822 698.342 377.21 698.721C379.794 699.135 382.383 699.545 384.969 699.956C385.228 699.997 386.763 700.403 386.996 700.28C387.142 700.199 387.197 699.68 387.247 699.337C387.408 698.208 387.525 697.027 387.357 695.912C386.984 693.418 384.906 692.357 382.802 691.514C378.12 689.641 372.982 688.598 367.866 688.362C366.689 688.307 365.51 688.298 364.324 688.33C362.93 688.368 361.783 688.19 361.074 689.615C359.961 691.863 359.343 694.704 358.971 697.216ZM365.295 775.937C366.325 772.311 366.055 768.52 366.765 764.84C367.13 762.944 367.628 761.053 368.17 759.189C368.607 757.684 369.337 756.066 369.422 754.518C369.427 754.414 369.308 754.362 369.224 754.414C367.781 755.332 366.67 757.198 365.845 758.66C364.857 760.408 364.101 762.224 363.49 764.122C362.273 767.903 361.271 772.436 362.82 776.083C363.281 777.168 364.908 777.295 365.295 775.937ZM396.977 726.843C396.113 726.808 395.252 726.693 394.388 726.55C395.351 727.441 396.24 728.533 396.732 729.773C396.811 728.793 396.911 727.817 397.043 726.842C397.023 726.843 396.998 726.845 396.977 726.843ZM405.096 800.58C406.62 799.418 407.733 797.855 409.029 796.454C410.301 795.079 408.321 793.192 407.047 794.569C405.943 795.762 404.984 797.227 403.685 798.217C403.061 798.693 402.77 799.503 403.177 800.186C403.536 800.786 404.472 801.054 405.096 800.58ZM413.684 758.871C410.908 757.822 408.179 756.663 405.272 755.961C403.535 755.541 402.792 758.319 404.518 758.737C407.196 759.383 409.704 760.435 412.261 761.402C413.902 762.02 415.336 759.495 413.684 758.871ZM443.034 756.291C443.717 754.56 441.002 753.99 440.328 755.698C439.553 757.664 438.665 759.588 437.89 761.554C437.206 763.285 439.92 763.856 440.594 762.147C441.369 760.181 442.259 758.259 443.034 756.291ZM471.919 788.379C472.369 788.963 473.123 789.248 473.838 788.776C474.435 788.379 474.803 787.397 474.346 786.807C473.011 785.086 471.66 783.388 470.096 781.875C468.829 780.65 466.839 782.771 468.107 783.996C469.503 785.347 470.727 786.843 471.919 788.379ZM476.513 598.508C475.222 599.472 474.092 600.618 472.988 601.794C471.704 603.16 473.686 605.047 474.968 603.68C475.899 602.69 476.836 601.684 477.924 600.871C478.553 600.402 478.838 599.581 478.432 598.903C478.07 598.297 477.141 598.04 476.513 598.508ZM434.263 646.59C434.987 648.019 435.64 649.425 435.678 651.095C435.718 652.915 438.525 652.751 438.485 650.929C438.437 648.742 437.641 646.891 436.69 645.016C435.887 643.43 433.463 645.011 434.263 646.59ZM418.889 610.882C417.381 609.956 415.972 612.493 417.466 613.412C418.677 614.155 419.887 614.902 421.098 615.646C422.604 616.571 424.015 614.033 422.52 613.116C421.31 612.371 420.099 611.627 418.889 610.882ZM485.8 670.954C486.053 672.74 488.761 671.81 488.509 670.042C488.12 667.308 487.645 664.617 486.911 661.976C486.43 660.248 483.722 661.159 484.203 662.89C484.938 665.531 485.413 668.222 485.8 670.954ZM495.565 702.831C497.373 702.686 497.379 699.852 495.572 699.999C493.936 700.129 492.329 700.659 490.75 701.149C488.995 701.695 489.736 704.382 491.489 703.837C492.824 703.421 494.183 702.942 495.565 702.831ZM499.042 768C499.662 768.268 500.299 768.504 500.925 768.757C502.181 769.263 503.435 769.77 504.689 770.278C507.302 771.335 509.914 772.398 512.522 773.464C517.745 775.599 523.009 777.644 528.244 779.752C533.583 781.9 538.908 784.082 544.226 786.279C546.731 787.312 549.256 788.303 551.775 789.305C553.93 790.162 556.591 791.724 558.959 791.747C559.081 791.748 559.122 791.59 559.052 791.515C558.16 790.541 556.735 790.028 555.561 789.429C554.362 788.818 553.14 788.25 551.924 787.67C549.389 786.462 546.85 785.266 544.29 784.107C539.17 781.792 534.039 779.494 528.908 777.201C523.674 774.862 518.447 772.504 513.167 770.262C510.682 769.205 508.194 768.152 505.703 767.105C504.354 766.537 503.006 765.97 501.657 765.405C501.073 765.161 500.497 764.893 499.9 764.679C499.108 764.395 498.505 764.498 497.688 764.342C496.355 764.089 495.775 765.834 496.796 766.519C497.639 767.083 498.081 767.583 499.042 768ZM517.714 795.949C518.004 795.224 517.403 794.4 516.738 794.264C515.942 794.098 515.302 794.625 515.009 795.354C514.235 797.29 513.135 799.087 511.72 800.635C510.456 802.018 512.434 803.906 513.7 802.522C515.473 800.581 516.748 798.363 517.714 795.949ZM531.611 749.654C532.894 748.286 530.913 746.401 529.631 747.768L525.984 751.655C524.701 753.022 526.682 754.908 527.964 753.54L531.611 749.654ZM568.952 741.467C571.566 742.087 574.615 742.619 576.393 744.765C576.48 744.87 576.626 744.721 576.574 744.613C574.303 739.972 567.759 738.682 563.23 737.275C560.027 736.281 556.739 735.493 553.424 734.811C553.765 730.972 552.86 726.932 552.551 723.15C552.221 719.111 551.955 715.058 551.823 710.996C551.688 706.852 551.663 702.673 551.808 698.51C551.953 694.365 552.495 690.245 552.738 686.107C552.761 685.706 552.211 685.72 552.092 686.056C550.705 689.965 550.106 694.239 549.648 698.303C549.176 702.488 549.013 706.643 549.062 710.82C549.113 715.117 549.35 719.392 549.68 723.657C549.836 725.679 550.018 727.697 550.19 729.716C550.321 731.259 550.38 732.792 550.689 734.273C548.69 733.895 546.685 733.546 544.687 733.208C538.316 732.131 531.918 731.161 525.574 729.965C522.459 729.379 519.39 728.637 516.29 728.001C513.371 727.4 510.289 726.647 507.292 726.479C506.222 726.419 506.083 727.906 506.789 728.365C509.223 729.949 512.458 730.96 515.27 731.76C518.093 732.564 521.029 733.09 523.923 733.638C529.959 734.78 536.053 735.647 542.138 736.565C548.214 737.482 554.302 738.388 560.309 739.607C563.201 740.194 566.085 740.785 568.952 741.467ZM583.467 664.818C585.027 665.652 586.444 663.119 584.889 662.287C582.854 661.201 580.685 660.421 578.497 659.665C576.819 659.085 576.089 661.87 577.745 662.442C579.71 663.121 581.638 663.841 583.467 664.818ZM588.875 769.752C590.44 770.578 591.858 768.045 590.297 767.224C588.106 766.068 585.704 765.353 583.433 764.364C581.817 763.659 580.39 766.187 582.01 766.894C584.282 767.883 586.683 768.598 588.875 769.752ZM591.563 709.847C590.045 711.39 588.02 712.193 586.112 713.068C584.448 713.831 585.17 716.526 586.852 715.757C589.23 714.665 591.652 713.654 593.544 711.733C594.86 710.397 592.876 708.513 591.563 709.847ZM574.994 629.683C573.326 630.441 574.049 633.136 575.734 632.372C577.601 631.523 579.53 630.846 581.398 629.997C583.065 629.24 582.342 626.543 580.658 627.31C578.79 628.159 576.861 628.834 574.994 629.683ZM545.498 599.194C543.729 598.997 542.969 601.771 544.745 601.969C546.95 602.215 549.12 602.528 551.21 603.22C552.897 603.781 553.628 600.997 551.963 600.445C549.873 599.75 547.702 599.439 545.498 599.194ZM535.539 678.25C537.164 677.35 535.746 674.991 534.129 675.887C532.424 676.832 530.658 677.59 528.8 678.098C527.03 678.583 527.777 681.27 529.54 680.787C531.631 680.215 533.623 679.313 535.539 678.25ZM526.416 634.588C524.67 634.207 523.924 636.985 525.663 637.364C528.723 638.029 531.874 638.284 534.956 638.855C536.713 639.182 537.463 636.405 535.709 636.079C532.627 635.507 529.475 635.254 526.416 634.588ZM487.299 623.023C485.521 623.459 486.272 626.146 488.039 625.712C489.92 625.249 491.825 625.132 493.73 625.018C495.541 624.911 495.544 622.077 493.737 622.185C491.573 622.313 489.435 622.5 487.299 623.023ZM359.58 645.356C364.167 644.643 368.763 644.017 373.364 643.481C373.578 643.456 373.788 643.431 374.002 643.406C374.027 643.356 374.059 643.307 374.09 643.257C375.597 640.943 376.709 638.654 377.672 636.084C378.594 633.635 379.487 631.114 380.904 628.871C382.518 626.314 384.695 624.259 387.079 622.449C388.522 623.345 389.858 624.414 391.082 625.558C392.368 626.76 394.36 624.641 393.072 623.437C391.985 622.42 390.825 621.49 389.598 620.661C391.018 619.705 392.469 618.802 393.884 617.906C399.187 614.544 404.615 611.404 410.154 608.5C412.73 607.147 415.337 605.927 417.96 604.694C419.372 604.029 420.767 603.199 422.179 602.444C422.08 601.443 422.38 600.299 423.147 599.592C423.713 599.073 424.152 598.868 424.827 598.485C424.979 598.422 425.07 598.385 425.112 598.364C425.08 598.374 424.989 598.406 424.837 598.466C424.48 598.654 424.452 598.606 424.755 598.325C424.773 597.75 425.895 596.473 426.152 595.866C427.049 593.784 427.332 591.621 428.651 589.695C430.471 587.043 433.52 585.899 436.357 586.595C436.659 583.514 436.744 580.312 437.895 577.51C437.926 577.434 438.028 577.396 438.074 577.474C439.262 579.455 439.358 581.733 439.443 584.094C439.526 586.309 439.436 588.585 439.143 590.809C439.326 590.939 439.511 591.064 439.704 591.183C440.607 591.731 441.581 592.138 442.605 592.421C444.555 592.958 446.601 593.121 448.645 593.099C453.927 593.042 459.371 592.183 464.566 590.964C469.822 589.729 477.879 587.866 482.559 584.936C485.648 583.007 488.498 580.702 491.389 578.464C490.35 575.125 490.093 571.486 491.153 568.552C491.28 568.201 491.814 568.104 491.914 568.507C492.567 571.208 492.753 573.953 493.625 576.611C493.638 576.649 493.651 576.69 493.666 576.728C493.941 576.526 494.214 576.324 494.488 576.125C495.122 575.665 495.98 575.93 496.357 576.509C502.395 585.789 511.991 585.776 522.065 586.903C533.09 588.138 544.17 589.517 554.766 592.578C564.899 595.508 574.579 600.073 582.239 607.292C583.973 608.926 585.594 610.68 587.123 612.522C585.638 612.799 584.166 613.179 582.711 613.725C580.99 614.373 581.722 617.064 583.451 616.414C585.32 615.711 587.209 615.306 589.117 615.048C594.317 621.945 598.365 629.873 601.864 637.704C608.574 652.721 612.926 668.878 614.907 685.472C613.799 684.867 612.671 684.293 611.515 683.767C609.908 683.037 608.484 685.566 610.092 686.297C611.878 687.11 613.613 688.02 615.293 689.018C616.011 696.29 616.278 703.636 616.088 710.997C615.635 728.547 613.248 746.723 607.906 763.757C605.286 772.117 601.821 780.46 596.67 787.697C594.339 790.974 591.694 793.964 588.579 796.51C587.071 797.747 585.475 798.865 583.792 799.827C581.625 801.074 578.802 801.609 576.932 803.303C576.316 803.86 575.841 804.573 575.481 805.371C575.685 806.831 575.706 808.308 575.302 809.805C575.175 810.273 574.83 810.669 574.405 810.875C574.398 811.002 574.397 811.126 574.397 811.245C574.397 811.302 574.313 811.322 574.302 811.266C574.285 811.156 574.268 811.049 574.25 810.936C574.113 810.991 573.969 811.021 573.822 811.03C568.492 811.364 563.155 811.546 557.818 811.678C558.234 810.379 558.684 809.087 559.116 807.785C559.703 806.018 556.993 805.44 556.411 807.192C555.905 808.713 555.377 810.224 554.906 811.748C549.188 811.871 543.471 811.95 537.765 812.097C525.628 812.404 513.494 812.985 501.353 813.443C482.498 814.151 463.508 814.445 444.622 816.366C443.973 815.007 443.245 813.683 442.556 812.344C441.741 810.764 439.318 812.341 440.128 813.917C440.607 814.847 441.105 815.764 441.576 816.693C437.75 817.12 433.929 817.61 430.116 818.197C423.609 819.195 417.163 820.669 410.662 821.733C404.053 822.817 397.589 823.075 391.037 822.359C389.858 822.231 389.166 821.553 388.88 820.677C388.869 820.674 388.862 820.668 388.856 820.656C388.519 820.281 388.205 819.969 387.88 819.702C387.49 819.47 387.069 819.279 386.574 819.117C385.653 818.816 384.692 818.657 383.717 818.57C382.643 818.471 381.555 818.52 380.482 818.449C379.577 818.385 378.693 818.263 377.809 818.104C376.221 817.816 374.712 817.405 373.212 816.83C371.905 816.331 370.724 815.571 369.61 814.734C367.305 813.167 365.311 811.11 363.569 808.952C362.554 807.692 361.599 806.378 360.732 805.003C359.223 802.619 357.937 800.127 356.637 797.615C356.166 796.876 355.736 796.115 355.342 795.337C357.895 794.428 360.473 793.658 363.177 793.454C364.984 793.318 364.991 790.484 363.184 790.621C360.081 790.854 357.146 791.758 354.229 792.801C354.087 792.429 353.952 792.053 353.828 791.672C353.481 790.881 353.196 790.067 352.96 789.238C352.82 788.863 352.682 788.489 352.541 788.115C352.229 786.808 351.916 785.499 351.601 784.189C350.97 782.102 350.473 779.975 350.11 777.811C349.804 776.391 349.57 774.956 349.411 773.499C348.929 769.977 348.537 766.455 348.518 762.865C348.565 760.649 348.711 758.43 348.954 756.217C349.06 754.716 349.235 753.218 349.471 751.728C349.777 749.513 350.081 747.322 350.588 745.124C350.967 743.636 351.346 742.147 351.725 740.659C352.669 737.547 353.782 734.485 355.063 731.481C355.133 731.294 355.49 730.869 355.702 730.852C355.864 730.839 356.089 730.975 356.014 731.178C356.007 731.195 356 731.218 355.994 731.235C356.067 731.065 356.137 730.89 356.213 730.719C356.276 730.56 356.521 730.234 356.712 730.226C356.722 730.225 356.732 730.225 356.747 730.227C356.697 730.195 356.652 730.152 356.606 730.101C355.351 728.671 354.536 726.738 353.639 725.05C352.895 723.655 352.194 722.181 351.994 720.568C351.819 719.15 352.063 717.73 352.955 716.523C353.968 715.15 355.871 714.421 354.819 712.584C353.625 710.495 351.864 708.726 353.629 706.167C354.526 704.864 355.946 704.093 357.001 702.944C358.215 701.615 358.794 699.899 358.767 698.183C358.693 698.231 358.595 698.215 358.559 698.11C357.55 695.068 358.294 691.617 359.344 688.534C359.916 686.862 361.122 686.34 362.522 686.177C356.486 674.581 350.841 662.769 345.813 650.643C345.647 650.246 345.483 649.848 345.32 649.451C345.075 648.855 345.595 648.015 346.197 647.844C350.571 646.619 355.126 646.042 359.58 645.356Z" fill="black"/>
<path fill-rule="evenodd" clip-rule="evenodd" d="M404.873 498.621C407.356 468.682 414.763 441.857 449.277 438.692C464.851 437.912 480.74 440.325 495.047 445.681C529.815 461.309 540.704 525.28 509.974 553.108C510.156 553.201 510.199 553.504 509.984 553.663C503.638 558.356 496.587 562.327 489.525 565.73C470.716 574.889 448.59 579.693 429.449 572.095C400.238 561.216 399.883 526.158 404.873 498.621Z" fill="white"/>
<path fill-rule="evenodd" clip-rule="evenodd" d="M347.125 487.161C345.927 486.142 345.037 484.765 344.587 483.189C344.177 481.752 344.153 480.158 344.594 478.675C345.068 477.083 346.086 475.778 345.86 474.164C345.836 474.006 345.805 473.842 345.757 473.678C344.887 470.666 342.734 468.581 343.514 465.139C343.734 464.168 344.146 463.28 344.721 462.567C344.659 461.835 344.605 461.095 344.56 460.355C343.302 457.439 343.355 453.884 344.714 450.861C344.882 449.344 345.134 447.836 345.488 446.347C345.33 445.058 345.558 443.615 345.976 442.455C346.706 440.414 347.611 438.391 348.59 436.397C348.477 435.874 348.53 435.311 348.821 434.796C349.35 433.861 350.048 433.024 350.762 432.205C351.267 431.268 351.776 430.339 352.281 429.422C352.515 429 352.773 428.532 353.058 428.036C352.29 426.636 351.879 425.251 352.701 423.503C353.009 422.846 353.856 422.326 354.55 422.326C355.309 422.327 356.076 422.316 356.846 422.3C358.292 420.461 359.928 418.79 361.679 417.781C363.454 416.162 365.255 414.57 367.005 412.949C367.501 412.488 368 412.027 368.496 411.566C368.5 411.555 368.503 411.541 368.506 411.53C368.875 410.168 369.288 408.82 369.702 407.466C369.959 406.626 370.039 405.758 370.836 405.262C372.502 404.226 375.06 403.927 376.968 403.655C377.158 403.474 377.348 403.297 377.538 403.116C376.678 400.839 376.837 398.356 377.935 395.96C378.307 395.146 379.6 394.712 380.308 395.194C381.939 396.308 383.878 396.622 385.798 396.332C388.624 393.979 400.025 383.42 401.786 382.273C401.808 382.234 401.825 382.196 401.848 382.157C402.842 380.507 404.044 379.159 405.396 378.055C405.589 377.84 405.782 377.626 405.976 377.411C405.809 376.208 405.365 375.063 404.65 374.125C404.572 374.017 404.486 373.912 404.398 373.811C403.147 372.378 404.684 370.348 406.436 371.034C406.562 371.083 406.688 371.132 406.814 371.185C408.161 371.712 409.652 372.283 411.205 372.748C411.774 372.5 412.354 372.271 412.883 372.025L418.549 369.397C419.483 368.964 420.469 368.585 421.372 368.088C421.691 365.961 423.79 364.455 425.965 364.399C425.84 364.002 425.653 363.619 425.39 363.263C425.314 363.157 425.229 363.056 425.142 362.959C424.025 361.712 425.526 359.19 427.124 360.263C427.235 360.338 427.351 360.412 427.464 360.487C427.906 360.775 428.361 361.044 428.82 361.302C429.558 360.935 430.387 360.812 431.255 361.104C433.174 361.75 434.944 362.417 436.634 363.507C436.702 363.551 436.773 363.588 436.843 363.629C437.685 362.556 439.021 361.793 440.221 361.73C440.246 361.729 440.264 361.727 440.286 361.726C441.188 360.293 442.835 359.394 444.424 359.496C444.323 357.522 446.291 355.64 448.08 355.32C450.172 354.946 452.052 356.059 452.675 358.078C452.848 358.64 453.021 359.203 453.196 359.766C454.82 358.844 456.534 358.11 458.325 357.688C462.4 356.729 466.382 357.26 470.305 358.17C470.699 358.26 471.09 358.354 471.482 358.448C472.043 357.761 472.569 357.06 473.072 356.405C473.942 355.275 476.021 356.016 475.876 357.411C475.778 358.374 476.161 359.04 476.781 359.493C477.462 359.553 478.121 359.544 479.114 359.466C480.428 359.361 481.026 359.285 482.4 358.664C483.04 358.375 483.839 357.668 484.212 357.053C485.648 354.694 489.281 353.868 491.006 355.934C492.828 355.023 495.124 355.996 496.13 357.499C496.656 358.285 497.759 358.677 499.147 358.988C500.189 359.22 501.253 359.381 502.324 359.512C502.802 358.832 503.809 358.335 504.544 358.839C505.043 359.181 505.527 359.534 506.004 359.897C509.689 360.192 513.358 359.995 516.877 358.338C519.857 356.934 522.582 360.126 522.084 362.97C522.945 363.372 523.88 363.618 524.73 364.042C526.585 364.968 528.107 366.514 529.032 368.382C529.198 368.717 529.348 369.058 529.49 369.4C530.183 369.929 530.868 370.474 531.537 371.052C532.654 370.41 533.768 369.767 534.885 369.125C535.721 368.644 537.127 368.862 537.289 369.97C537.555 371.794 538.208 373.281 539.141 374.503C542.183 375.937 545.108 377.576 547.907 379.424C551.128 380.253 554.555 380.645 557.37 381.148C558.335 381.321 558.858 382.56 558.312 383.438C557.735 384.367 557.157 385.296 556.583 386.225C558.183 387.709 559.684 389.269 561.101 390.891C565.044 395.399 568.34 400.401 571.288 405.732C572.458 406.141 573.629 406.546 574.8 406.955C575.929 407.348 576.434 408.642 575.516 409.669C575.08 410.158 574.689 410.669 574.355 411.202C576.008 413.874 577.956 416.285 580.685 417.78C581.515 418.234 582.138 418.986 582.469 419.862C582.753 420.036 583.033 420.225 583.31 420.417C584.08 420.959 584.544 422.212 583.637 423.026C583.001 423.602 582.403 424.274 581.896 425.007C581.786 425.414 581.673 425.824 581.56 426.23C584.094 428.437 586.2 431.051 587.778 434.029C588.154 433.946 588.54 433.963 588.851 434.178C591.681 436.123 591.757 439.483 590.61 442.558C591.287 447.05 590.834 451.721 589.497 456.191C591.237 457.843 592.28 460.314 592.702 462.731C593.446 466.975 593.483 473.567 593.669 477.932C595.566 479.671 596.915 481.986 597.663 484.518C598.297 484.799 598.932 485.08 599.566 485.361C600.13 485.61 600.542 486.332 600.506 486.964C600.337 490.02 599.086 492.5 597.428 494.776C596.838 496.491 595.968 498.093 594.828 499.646C594.04 500.71 593.269 501.733 592.589 502.873C592.519 502.988 592.476 503.092 592.445 503.165C592.71 503.438 592.93 503.908 593.123 504.239C594.737 507.023 594.753 510.399 592.446 513.042C593.311 513.706 593.335 515.147 592.568 516.078C587.576 522.107 583.409 529.324 576.494 532.778C576.462 532.834 576.434 532.889 576.409 532.942C577.801 536.257 577.986 538.012 576.834 541.588C576.827 541.62 576.816 541.649 576.806 541.682C576.191 543.558 575.061 546.572 573.035 547.264C572.397 547.482 571.768 547.601 571.147 547.634C569.537 549.289 567.93 550.948 566.323 552.606C566.18 553.389 566.091 554.176 566.061 554.966C566.012 556.29 564.778 557.43 563.453 557.118C562.987 557.009 560.41 554.631 559.937 554.673C559.698 554.928 559.465 555.182 559.233 555.44C558.379 556.391 557.193 557.884 557.092 558.834C556.899 560.625 555.736 562.732 553.865 563.202C553.162 563.962 552.039 564.244 551.181 563.357C551.125 563.3 551.069 563.243 551.01 563.195C550.918 563.188 550.831 563.184 550.74 563.179C550.323 564.449 549.906 565.719 549.485 566.984C548.662 569.481 545.536 571.241 543.322 569.942C542.963 570.179 542.612 570.429 542.261 570.679C541.727 571.053 541.185 571.437 540.63 571.798C540.598 571.892 540.567 571.985 540.538 572.076C540.178 573.197 538.689 573.875 537.775 573.297C537.49 573.405 537.199 573.496 536.904 573.574C535.356 573.973 533.798 573.98 532.305 573.549C531.236 573.243 530.217 572.599 529.066 572.571C528.994 572.57 528.92 572.578 528.847 572.581C527.904 574.576 525.754 576.374 524.062 577.041C521.846 577.916 519.58 577.784 517.566 576.992C517.019 578.12 516.333 579.2 515.514 580.209C515.06 580.767 514.243 580.701 513.778 580.312C512.893 579.57 512.015 578.827 511.136 578.082C510.501 577.872 509.859 577.613 509.19 577.376C507.097 576.636 504.799 576.413 502.864 575.28C501.945 574.742 501.082 574.038 500.37 573.204C499.03 572.502 497.798 571.6 496.688 570.549C496.134 570.585 495.556 570.488 494.996 570.235C492.65 569.17 491.422 566.795 491.318 564.295C489.428 559.897 488.317 555.15 488.019 550.243C487.925 548.632 487.912 547.002 488.038 545.378C488.125 544.234 488.411 543.456 488.842 542.401C488.987 542.056 489.117 541.74 489.219 541.396C489.197 540.308 489.186 539.219 489.174 538.133C488.885 537.233 488.368 536.411 487.647 535.736C486.53 534.69 486.024 532.413 487.044 530.981C487.71 530.054 488.372 529.126 489.036 528.2C488.859 524.401 487.969 518.389 489.978 517.634C489.898 517.072 489.728 516.524 489.63 515.966C489.166 513.292 489.453 510.858 490.883 508.41C491.183 507.902 491.437 507.451 491.644 507.014C491.777 506.228 491.908 505.442 492.04 504.656C492.242 503.445 492.442 502.223 492.613 500.996C492.705 499.441 492.788 497.887 492.88 496.328C492.964 494.894 493.059 493.459 493.157 492.02C493.121 491.382 493.066 490.745 492.986 490.11C492.515 486.32 490.97 484.999 488.296 482.504C487.875 482.461 487.458 482.411 487.048 482.351C485.136 482.064 483.138 481.562 481.17 481.901C479.032 482.268 477.118 483.311 475.043 482.245C474.435 481.927 473.092 481.029 472.979 480.261C472.973 480.212 472.961 480.17 472.948 480.139C472.804 480.126 472.618 480.12 472.501 480.123C470.852 480.164 469.277 480.911 467.613 480.829C465.646 480.732 463.887 479.955 462.733 478.718C461.247 479.173 459.731 479.429 458.192 479.314C456.9 479.221 455.744 478.864 454.601 478.302C453.772 477.898 454.035 477.751 453.129 478.173C451.067 479.136 449.201 480.357 446.885 479.917C445.681 479.691 444.645 479.097 443.773 478.268C443.566 478.075 443.217 477.787 442.982 477.511C441.879 478.139 439.105 479.572 438.648 479.712C437.356 480.107 435.988 480.138 434.732 479.788C433.811 479.53 432.682 478.748 431.872 478.622C430.825 478.458 428.492 480.067 427.238 480.646C425.039 481.664 422.712 482.021 420.49 481.235C419.726 480.965 418.242 479.797 417.669 479.841C416.737 481.053 414.126 487.536 413.342 489.892C410.166 499.419 409.278 528.634 410.717 535.989C410.772 536.205 410.832 536.418 410.891 536.633C412.664 542.999 414.512 549.47 417.49 555.324C420.301 560.839 424.193 565.725 429.789 568.499C435.592 571.376 442.411 571.819 448.945 570.999C453.152 570.475 457.291 569.379 461.362 568.071C463.49 567.39 465.599 566.646 467.7 565.878C468.616 565.544 469.546 565.229 470.445 564.851C472.033 564.18 472.863 564.086 474.381 564.734C475.763 565.326 476.112 567.29 475.39 568.582C474.212 570.688 472.065 570.957 469.991 571.674C467.877 572.402 465.757 573.108 463.621 573.753C459.532 574.985 455.377 575.99 451.186 576.588C443.684 577.663 435.957 577.142 429.138 574.243C428.367 573.914 427.624 573.558 426.906 573.168C427.172 573.527 427.44 573.886 427.713 574.242C428.468 575.227 427.903 577.011 426.838 577.636C426.501 577.834 426.165 578.022 425.824 578.21C425.778 578.321 425.729 578.435 425.672 578.547C424.696 580.571 422.657 581.853 420.584 582.478C418.12 583.217 415.362 582.958 412.858 583.032C410.535 583.098 408.212 583.163 405.894 583.229C405.346 583.248 404.799 583.262 404.251 583.278C401.495 583.355 398.74 583.435 395.987 583.514C393.531 583.583 393.645 583.767 391.342 582.913C390.315 582.527 389.475 581.947 388.77 581.15C388.327 580.979 387.9 580.776 387.491 580.543C386.172 579.793 385.004 578.751 383.926 577.591C382.09 578.281 379.519 577.892 379.167 575.59C378.6 571.904 373.811 570.597 371.58 568.041C369.777 565.977 368.493 563.212 368.566 560.481C364.018 558.527 361.554 552.818 360.988 547.883C360.723 545.596 360.77 543.127 360.387 540.808C360.215 540.631 360.061 540.442 359.932 540.237C358.794 538.44 357.802 536.578 356.928 534.661C355.738 533.866 354.304 533.415 352.803 533.416C349.112 533.418 348.43 528.438 351.952 527.02C351.97 527.012 351.983 527.007 352.001 526.999C351.052 524.649 351.139 521.797 352.303 519.45C352.254 519.205 352.21 518.964 352.164 518.719C350.194 516.694 349.067 513.786 349.2 510.88C348.3 510.292 347.292 509.856 346.186 509.613C344.48 509.24 344.474 507.14 345.74 506.124C346.249 505.715 346.672 505.248 347.023 504.739C346.156 502.144 346.507 499.063 348.297 496.786C347.168 495.388 346.037 493.99 344.908 492.591C344.16 491.666 343.767 490.044 344.917 489.057C345.652 488.423 346.386 487.792 347.125 487.161Z" fill="black"/>
<path fill-rule="evenodd" clip-rule="evenodd" d="M430.39 537.996C429.19 535.919 425.594 536.48 425.04 539.018C423.913 544.164 429.894 548.503 434.446 548.352C438.969 548.202 444.052 544.01 443.409 539.133C443.251 537.927 441.644 538.169 441.095 538.964L440.882 539.269C439.389 541.377 437.42 543.583 434.661 543.254C433.518 543.118 432.479 542.455 431.79 541.566C430.959 540.493 431.053 539.148 430.39 537.996ZM459.242 499.133C458.629 498.998 458.01 499.101 457.466 499.366C456.253 499.663 455.236 500.745 454.878 501.932C454.849 502.036 454.818 502.137 454.784 502.238L454.729 502.389L454.876 502.006C454.807 502.377 454.51 502.783 454.401 503.159C454.269 503.621 454.236 504.139 454.28 504.637C453.894 504.664 453.509 504.699 453.123 504.755L452.752 504.812C450.671 505.13 448.387 505.622 447.151 507.512C446.456 508.573 447.101 510.372 448.372 510.494C450.33 510.682 452.02 509.486 453.972 509.153C455.817 508.836 457.746 508.842 459.567 509.07C463.324 509.544 466.775 510.88 470.436 511.632L470.934 511.73C471.56 511.846 472.275 510.921 471.657 510.44C468.728 508.176 464.975 506.423 461.275 505.437C461.817 504.538 461.986 503.387 461.62 502.478C461.564 502.288 461.493 502.104 461.418 501.922L461.265 501.547C461.248 501.367 461.216 501.188 461.166 501.016L461.158 500.963L461.153 500.966C460.879 500.077 460.162 499.336 459.242 499.133ZM421.797 501.479C420.996 500.715 419.869 500.901 419.03 501.589L418.918 501.684C418.128 502.085 417.472 502.899 417.041 503.642C416.594 504.414 416.296 505.191 416.283 506.012C414.34 506.134 412.477 506.833 411.047 508.502C410.584 509.041 410.268 509.849 410.521 510.528L410.669 510.932C411.146 512.214 413.298 512.841 414.033 511.258L414.067 511.18C414.849 509.304 417.835 509.321 419.42 509.414C420.526 509.48 421.618 509.693 422.685 509.942C423.061 510.029 423.434 510.126 423.806 510.225L424.178 510.326C424.378 510.38 425.41 510.886 424.767 510.79C424.594 510.763 424.463 511.026 424.64 511.101C425.405 511.427 426.226 510.64 426.177 509.81C426.092 508.369 423.822 507.709 422.73 507.275L422.664 507.248C422.245 507.078 421.807 506.916 421.354 506.768C421.609 506.37 421.821 505.931 421.997 505.464C422.164 505.023 422.276 504.596 422.337 504.134C422.398 503.906 422.398 503.682 422.339 503.461L422.331 503.397C422.361 503.247 422.376 503.093 422.375 502.938L422.382 502.878L422.375 502.878C422.355 502.339 422.143 501.81 421.797 501.479ZM434.585 516.129C431.5 517.274 426.405 520.199 428.002 524.153C430.236 527.741 436.194 524.656 439.081 523.285C441.674 522.265 443.014 525.856 440.507 527.11C419.787 536.608 419.914 514.755 433.838 514.255C435.372 514.2 435.416 515.761 434.585 516.129ZM462.041 486.026L461.517 485.902C458.785 485.263 455.998 484.045 453.566 486.345C452.61 487.248 452.41 489.019 453.089 490.035C454.637 492.35 456.941 491.847 459.45 491.904C461.359 491.948 463.239 492.404 465.021 493.008C466.477 493.502 467.826 494.238 469.1 495.073C470.351 495.894 471.203 497.242 472.488 497.972C472.957 498.239 473.503 497.903 473.674 497.415C474.278 495.681 473.269 493.625 472.415 492.228C471.372 490.525 469.785 489.174 468.08 488.183C466.21 487.097 464.142 486.528 462.041 486.026ZM422.218 486.545C417.598 486.816 413.146 489.676 410.553 493.636C409.671 494.982 410.309 496.861 411.569 497.531C412.981 498.284 414.495 497.593 415.428 496.34L415.485 496.264C416.971 494.182 418.886 492.498 421.152 491.341C422.258 490.777 423.482 490.3 424.678 490.024L425.063 489.934C425.605 489.811 426.234 489.686 426.722 489.743C426.985 489.762 427.225 489.836 427.448 489.956C427.339 490.198 427.614 490.466 427.869 490.31C429.019 489.605 428.88 488.476 427.935 487.648C426.597 486.476 423.95 486.444 422.218 486.545Z" fill="black"/>
<path fill-rule="evenodd" clip-rule="evenodd" d="M432.798 531.262C436.707 529.255 443.712 530.393 446.255 530.859C452.167 531.944 458.113 534.691 459.94 539.436C461.999 544.782 457.859 546.748 457.252 546.502C453.156 547.035 448.284 544.72 443.994 544.301C440.512 543.957 436.838 543.694 433.578 542.015C431.192 543.479 425.807 544.512 421.46 545.925C417.757 547.129 416.149 549.361 412.719 549.108C408.61 548.806 410.314 539.972 414.905 536.164C419.929 531.997 428.412 529.928 432.798 531.262ZM424.978 569.061C428.392 569.701 428.64 562.126 429.028 559.433C429.333 557.328 431.03 551.847 435.305 551.827C439.577 551.809 441.173 556.224 440.95 559.04C440.805 560.867 439.122 570.179 444.416 571.032C447.792 570.821 451.699 570.362 455.251 569.492C459.432 568.29 464.873 564.623 466.292 571.13C466.803 573.472 448.379 581.603 440.21 582.721C431.924 584.904 422.239 582.865 416.356 576.812C415.017 575.435 411.254 569.612 410.988 568.146C410.431 565.069 411.745 562.989 415.554 563.862C418.242 565.157 422.783 568.65 424.978 569.061Z" fill="black"/>
<path fill-rule="evenodd" clip-rule="evenodd" d="M401.469 519.633C405.699 523.572 412.772 524.377 418.417 521.825C432.91 515.255 425.862 497.666 414.705 493.458C413.311 493.204 411.449 492.521 409.75 492.437C409.597 492.374 409.261 492.6 408.856 492.426C396.541 494.42 393.697 512.792 401.469 519.633ZM448.173 518.107C452.913 523.852 461.748 525.215 468.975 522.02C483.252 515.874 478.228 500.209 468.48 494.5C447.878 488.262 439.323 507.521 448.173 518.107ZM479.127 503.075C479.14 503.068 479.154 503.064 479.167 503.059C479.093 503.031 479.017 503.002 478.942 502.975C478.965 503.035 478.992 503.094 479.016 503.154C479.053 503.126 479.086 503.096 479.127 503.075ZM391.697 501.438C392.861 501.375 394.541 501.464 395.504 502.18C397.895 494.412 406.682 486.857 414.299 491.587C420.302 493.094 424.75 496.929 427.271 502.216C431.845 499.373 439.024 500.08 442.978 503.283C445.59 494.971 451.98 491.756 459.579 490.912C467.876 489.157 476.125 496.373 478.691 502.388C480.836 502.036 484.042 501.208 486.057 502.356C499.159 498.357 522.056 495.281 524.714 496.951C526.61 497.539 527.642 501.749 524.991 502.126C522.683 501.941 525.268 498.985 522.941 498.806C510.54 498.763 498.497 501.812 486.223 503.493C485.124 504.958 481.584 505.624 479.696 505.165C482.648 515.444 476.212 522.908 466.587 525.571C451.684 529.659 438.753 517.68 442.676 504.256C438.168 502.368 432.977 502.748 428.06 504.148C436.211 532.5 387.527 533.912 395.196 503.184C390.131 505.864 389.041 502.069 391.697 501.438Z" fill="black"/>
<path d="M131.23 138.878L137.158 87.236H164.974L149.698 170H114.7L106.948 123.83L97.9418 170H64.4258L49.1498 87.236H76.9658L82.7798 138.194L91.8998 87.236H122.338L131.23 138.878ZM200.964 149.138C229.844 148.986 250.782 148.568 263.778 147.884C263.246 151 262.904 154.23 262.752 157.574C262.676 160.842 262.638 164.984 262.638 170H174.06C174.668 155.256 174.972 141.462 174.972 128.618C174.972 115.774 174.668 101.98 174.06 87.236H262.638V107.87H200.964V118.814C204.612 118.89 210.008 118.928 217.152 118.928C229.236 118.928 241.738 118.7 254.658 118.244V137.852C241.738 137.396 229.236 137.168 217.152 137.168C210.008 137.168 204.612 137.206 200.964 137.282V149.138ZM339.723 128.846C357.051 128.846 365.715 134.356 365.715 145.376C365.715 150.544 364.537 154.952 362.181 158.6C359.825 162.172 355.607 164.984 349.527 167.036C343.447 169.012 335.011 170 324.219 170H272.919C273.527 155.256 273.831 141.462 273.831 128.618C273.831 115.774 273.527 101.98 272.919 87.236H299.709V87.35H323.991C333.415 87.35 340.825 88.148 346.221 89.744C351.693 91.264 355.531 93.506 357.735 96.47C360.015 99.434 361.155 103.196 361.155 107.756C361.155 112.392 359.521 116.534 356.253 120.182C353.061 123.754 347.551 126.642 339.723 128.846ZM299.709 108.098V118.7H321.597C326.309 118.7 329.577 118.282 331.401 117.446C333.301 116.61 334.251 115.09 334.251 112.886C334.251 111.138 333.263 109.922 331.287 109.238C329.387 108.478 326.157 108.098 321.597 108.098H299.709ZM321.597 149.138C325.549 149.138 328.551 148.986 330.603 148.682C332.731 148.302 334.251 147.694 335.163 146.858C336.075 145.946 336.531 144.73 336.531 143.21C336.531 141.234 335.429 139.828 333.225 138.992C331.097 138.08 327.221 137.624 321.597 137.624H299.709V149.138H321.597ZM385.729 125.768C382.385 125.768 379.535 124.59 377.179 122.234C374.823 119.802 373.645 116.914 373.645 113.57C373.645 110.226 374.823 107.376 377.179 105.02C379.535 102.664 382.385 101.486 385.729 101.486C388.997 101.486 391.809 102.702 394.165 105.134C396.597 107.49 397.813 110.302 397.813 113.57C397.813 116.914 396.597 119.802 394.165 122.234C391.809 124.59 388.997 125.768 385.729 125.768ZM385.729 159.968C382.385 159.968 379.535 158.79 377.179 156.434C374.823 154.002 373.645 151.114 373.645 147.77C373.645 144.426 374.823 141.576 377.179 139.22C379.535 136.864 382.385 135.686 385.729 135.686C388.997 135.686 391.809 136.902 394.165 139.334C396.597 141.69 397.813 144.502 397.813 147.77C397.813 151.114 396.597 154.002 394.165 156.434C391.809 158.79 388.997 159.968 385.729 159.968ZM405.845 160.196C408.429 156.32 410.557 152.71 412.229 149.366C413.977 146.022 415.649 142.146 417.245 137.738C422.641 140.854 428.911 143.286 436.055 145.034C443.199 146.782 449.849 147.656 456.005 147.656C462.313 147.656 466.759 147.124 469.343 146.06C471.927 144.92 473.219 143.704 473.219 142.412C473.219 137.776 466.151 135.458 452.015 135.458C436.511 135.458 425.263 133.862 418.271 130.67C411.279 127.402 407.783 122.158 407.783 114.938C407.783 104.678 412.039 97.116 420.551 92.252C429.063 87.388 440.121 84.956 453.725 84.956C461.629 84.956 469.723 85.982 478.007 88.034C486.367 90.01 493.891 92.746 500.579 96.242C498.375 101.258 496.057 107.376 493.625 114.596C493.169 116.116 492.789 117.256 492.485 118.016C488.609 114.9 482.757 112.316 474.929 110.264C467.101 108.136 460.185 107.072 454.181 107.072C446.961 107.072 442.097 107.566 439.589 108.554C437.081 109.466 435.827 110.834 435.827 112.658C435.827 114.482 437.537 115.964 440.957 117.104C444.453 118.168 449.469 118.7 456.005 118.7C472.117 118.7 483.821 120.562 491.117 124.286C498.413 127.934 502.061 133.558 502.061 141.158C502.061 151.798 498.185 159.474 490.433 164.186C482.681 168.822 470.939 171.14 455.207 171.14C446.771 171.14 438.183 170.228 429.443 168.404C420.703 166.504 412.837 163.768 405.845 160.196ZM115.954 293.846C133.282 293.846 141.946 299.356 141.946 310.376C141.946 315.544 140.768 319.952 138.412 323.6C136.056 327.172 131.838 329.984 125.758 332.036C119.678 334.012 111.242 335 100.45 335H49.1498C49.7578 320.256 50.0618 306.462 50.0618 293.618C50.0618 280.774 49.7578 266.98 49.1498 252.236H75.9398V252.35H100.222C109.646 252.35 117.056 253.148 122.452 254.744C127.924 256.264 131.762 258.506 133.966 261.47C136.246 264.434 137.386 268.196 137.386 272.756C137.386 277.392 135.752 281.534 132.484 285.182C129.292 288.754 123.782 291.642 115.954 293.846ZM75.9398 273.098V283.7H97.8278C102.54 283.7 105.808 283.282 107.632 282.446C109.532 281.61 110.482 280.09 110.482 277.886C110.482 276.138 109.494 274.922 107.518 274.238C105.618 273.478 102.388 273.098 97.8278 273.098H75.9398ZM97.8278 314.138C101.78 314.138 104.782 313.986 106.834 313.682C108.962 313.302 110.482 312.694 111.394 311.858C112.306 310.946 112.762 309.73 112.762 308.21C112.762 306.234 111.66 304.828 109.456 303.992C107.328 303.08 103.452 302.624 97.8278 302.624H75.9398V314.138H97.8278ZM217.249 274.922C208.205 274.466 201.517 274.2 197.185 274.124V313.112C201.593 313.036 208.281 312.77 217.249 312.314V335H151.015V312.314C159.755 312.77 166.405 313.036 170.965 313.112V274.124C166.405 274.2 159.755 274.466 151.015 274.922V252.236H217.249V274.922ZM254.2 311.972C276.24 311.82 294.48 311.44 308.92 310.832C307.932 314.708 307.324 318.432 307.096 322.004C306.868 325.576 306.754 329.908 306.754 335H226.384C226.992 320.256 227.296 306.462 227.296 293.618C227.296 280.774 226.992 266.98 226.384 252.236H254.2V311.972ZM343.597 311.972C365.637 311.82 383.877 311.44 398.317 310.832C397.329 314.708 396.721 318.432 396.493 322.004C396.265 325.576 396.151 329.908 396.151 335H315.781C316.389 320.256 316.693 306.462 316.693 293.618C316.693 280.774 316.389 266.98 315.781 252.236H343.597V311.972ZM434.308 314.138C463.188 313.986 484.126 313.568 497.122 312.884C496.59 316 496.248 319.23 496.096 322.574C496.02 325.842 495.982 329.984 495.982 335H407.404C408.012 320.256 408.316 306.462 408.316 293.618C408.316 280.774 408.012 266.98 407.404 252.236H495.982V272.87H434.308V283.814C437.956 283.89 443.352 283.928 450.496 283.928C462.58 283.928 475.082 283.7 488.002 283.244V302.852C475.082 302.396 462.58 302.168 450.496 302.168C443.352 302.168 437.956 302.206 434.308 302.282V314.138ZM598.511 276.176C586.579 275.796 574.989 275.568 563.741 275.492V335H535.241V275.492C523.917 275.568 512.365 275.796 500.585 276.176V252.236H598.511V276.176Z" fill="black"/>
</svg>
