<svg width="644" height="843" viewBox="0 0 644 843" fill="none" xmlns="http://www.w3.org/2000/svg">
<rect width="644" height="809" rx="30" fill="#932ED6" fill-opacity="0.72"/>
<path fill-rule="evenodd" clip-rule="evenodd" d="M402.801 602.014C397.116 603.234 391.429 604.455 385.742 605.675C358.512 610.945 331.275 618.422 304.25 624.18C303.586 623.192 302.268 623.525 301.464 624.361C298.77 624.452 295.766 622.8 293.309 625.183C293.23 625.181 293.151 625.178 293.07 625.18C288.788 617.553 285.852 609.222 283.004 600.869C281.185 595.743 278.72 590.864 274.122 587.822C266.266 583.411 248.257 574.71 238.981 576.271C238.841 574.668 238.08 573.089 236.817 572.161C239.654 567.165 228.48 565.455 227.685 566.09C228.313 550.454 220.915 537.82 204.394 536.686C189.594 535.435 168.515 537.437 160.423 553.512C159.548 553.521 150.59 554.541 149.723 554.738C148.388 553.232 133.465 570.786 139.489 575.561C85.0771 605.438 54.2647 606.311 38.7408 673.946C36.6633 680.372 36.4627 687.158 34.2727 693.462C26.5139 711.749 20.1863 730.993 18.4998 750.088C14.7759 751.459 14.2985 757.909 18.5962 758.321C20.2378 758.48 21.609 758.8 22.8009 759.573C21.7426 775.183 25.3047 810.128 27.7242 809.732C32.5364 824.47 54.5012 826.178 70.1176 818.938C67.3942 824.19 70.0548 826.97 70.0342 829.607C126.058 825.008 187.343 816.523 243.345 812.696C250.511 811.744 258.035 812.665 265.112 810.776C269.432 809.253 269.489 802.636 265.124 802.336L284.262 796.011C283.836 795.905 292.181 789.525 298.534 778.702C304.463 766.736 300.595 753.602 303.337 741.025C324.02 736.914 345.039 733.708 365.51 727.857C368.234 735.67 380.376 724.494 384.242 720.12C384.238 720.115 384.232 720.11 384.229 720.103C386.088 719.387 387.589 717.512 387.656 715.494C388.971 713.523 389.265 710.93 388.03 709.324C394.004 676.405 402.984 642.451 406.391 609.536C407.508 609.162 408.561 608.561 409.456 607.72L409.385 607.659C410.906 605.838 411.22 602.97 408.719 601.874C406.699 600.99 405.005 601.54 402.801 602.014Z" fill="white"/>
<path fill-rule="evenodd" clip-rule="evenodd" d="M161.578 550.638C163.299 546.305 168.992 547.233 168.322 551.65C167.921 554.295 166.438 557.215 165.106 559.65C164.022 561.631 162.79 563.587 161.123 565.173C164.048 567.498 167.082 569.713 170.196 571.789C173.595 574.052 177.17 576.087 180.87 577.908C184.112 579.504 187.505 580.858 190.558 582.755C193.399 584.521 195.979 586.744 197.279 589.89C198.662 593.241 198.02 596.947 196.955 600.587L196.831 600.999C195.744 604.608 193.873 609.025 196.395 612.004C197.678 613.521 199.553 614.481 201.172 615.622C202.609 616.638 203.956 617.768 205.19 619.008C207.882 621.708 210.064 624.847 211.428 628.473L211.55 628.801C212.717 632.014 213.559 636.023 211.919 639.507C211.449 640.506 209.958 640.377 209.705 639.49C209.136 637.475 209.183 635.29 208.708 633.236C208.213 631.1 207.378 629.115 206.281 627.275C204.16 623.713 201.272 620.799 197.852 618.451L196.826 617.758C194.158 615.93 191.709 613.946 191.192 610.457C190.638 606.726 192.229 602.919 193.263 599.203C193.983 596.614 194.232 594.183 193.491 592.007C192.554 593.587 191.282 595.134 190.274 596.497C188.266 599.214 186.242 601.916 184.221 604.624C182.148 607.401 180.127 610.211 178.2 613.076C177.338 614.358 176.485 615.646 175.636 616.936C174.996 617.904 174.108 618.901 173.412 619.895C173.576 620.362 173.558 620.925 173.252 621.361C169.561 626.603 164.44 617.187 163.104 614.814C160.384 609.98 158.372 604.738 155.643 599.906C152.813 594.898 149.587 590.077 145.981 585.626C143.801 582.932 141.352 580.452 139.361 577.642C134.579 582.401 128.308 585.954 122.548 589.187C116.22 592.737 109.65 595.804 103.165 599.001L101.249 599.95C90.0751 605.509 78.6254 611.518 69.3063 620.14C58.3555 630.272 51.8215 643.357 46.9293 656.685C41.2974 672.029 36.6154 687.654 32.2429 703.234C30.0052 711.206 27.8788 719.199 25.8759 727.203C24.1109 734.254 22.6382 741.338 20.6041 748.35C24.6232 747.735 29.194 748.705 32.6211 748.735C48.2398 748.871 63.6387 750.216 78.3563 753.964C80.1742 754.426 80.688 756.138 80.2796 757.622C81.3334 757.208 82.3862 756.79 83.44 756.377C82.3015 754.796 82.8752 751.656 82.9807 749.74L82.9874 749.608C83.1002 747.057 83.4029 744.483 83.6061 741.927C83.9932 737.053 84.4852 732.203 85.1274 727.328L85.291 726.108C86.0169 720.8 86.5643 715.484 87.3526 710.177L87.4456 709.569C87.0977 708.277 86.6905 707.008 86.2628 705.747C85.123 702.388 83.5012 699.293 82.0839 696.078C81.9168 695.699 82.5018 695.4 82.7724 695.608C85.2008 697.459 87.1217 699.947 88.6598 702.603C88.688 702.466 88.7128 702.33 88.7421 702.191L88.9269 701.317C89.3821 699.182 89.9332 696.93 91.2576 695.085C91.3985 694.889 91.6748 694.82 91.8053 695.02C93.0439 696.939 93.1639 699.541 93.3385 701.872C93.5362 704.508 93.5424 707.2 93.4829 709.874C93.3671 715.1 92.9487 720.376 92.6072 725.62C92.2722 730.774 91.6533 735.896 90.8669 741.052L90.7177 742.018C90.3337 744.474 90.0158 746.952 89.5156 749.405L89.3745 750.072C89.1078 751.291 88.9364 752.986 88.4131 754.438C101.624 749.289 114.855 744.221 128.111 739.212C137.691 735.592 147.281 732.005 156.866 728.405C157.38 727.459 158.013 726.558 158.804 725.724C161.409 722.978 164.843 721.484 167.969 722.988C168.224 723.11 168.242 723.498 167.964 723.678C167.358 724.07 166.753 724.47 166.158 724.883L171.915 722.686C176.217 721.041 180.574 719.11 184.975 717.797C193.099 712.945 201.828 709.095 210.376 705.299L211.384 704.848C215.761 702.879 220.291 700.72 224.807 699.381C228.114 698.4 231.984 698.649 233.288 701.786C234.959 702.666 236.531 703.747 238.048 704.812C239.145 705.581 240.196 706.414 241.264 707.22L241.46 707.367C242.334 708.005 243.026 708.419 243.234 709.577C243.34 710.175 242.936 711.049 242.163 711.058C239.796 711.094 237.892 708.65 236.299 707.244C235.069 706.157 233.829 705.031 232.706 703.809C232.044 704.238 231.139 704.283 230.725 703.557C228.578 699.799 222.588 703.291 219.28 704.637L214.539 706.563C212.169 707.526 209.798 708.492 207.433 709.471C200.933 712.159 194.461 715.075 187.902 717.614C188.483 718.172 188.393 719.296 187.279 719.852C182.14 722.418 176.511 724.098 171.179 726.074C167.811 727.322 164.447 728.576 161.083 729.834C160.499 730.81 160.077 731.888 159.893 733.104C159.218 737.579 160.414 742.507 161.585 746.617L161.761 747.23C162.723 750.533 164.146 754.552 167.159 756.351C167.895 756.791 168.834 757.044 169.782 757.016C175.735 753.338 181.69 749.661 187.646 745.988C188.749 745.308 189.76 745.931 189.999 746.787C192.094 746.203 194.185 745.429 196.091 744.575C199.293 743.139 201.804 740.828 204.811 739.077C210.626 735.693 216.517 738.301 221.687 740.202L222.878 740.634C225.195 741.456 230.02 742.995 231.16 739.853C232.262 736.816 228.872 734.114 226.677 733.065C224.063 731.817 221.009 731.344 218.043 731.002C216.351 730.806 214.637 730.685 212.912 730.654C210.955 730.617 208.931 730.898 207.051 730.504C206.115 730.307 205.982 728.876 207.066 728.507C209.973 727.519 213.434 727.809 216.459 728.166L218.039 728.358C221.086 728.725 224.16 729.276 226.929 730.401C228.944 731.218 231.065 732.573 232.443 734.376C233.662 733.136 235.168 732.996 236.734 733.214L237.585 733.344C238.988 733.557 240.126 733.683 241.497 733.257C241.687 732.265 241.881 731.273 242.086 730.28C244.112 720.509 246.325 710.754 248.76 701.025C252.959 684.239 257.796 667.558 263.231 650.971L263.776 649.313C265.031 645.517 266.046 641.424 268.048 637.836C269.941 634.444 272.947 632.262 276.51 630.872C280.554 629.296 284.797 628.219 288.919 626.987C289.839 626.713 290.76 626.448 291.68 626.176C290.915 624.902 290.347 623.422 289.834 622.294L289.744 622.098C288.643 619.741 287.653 617.324 286.702 614.891L285.988 613.059C284.267 608.654 282.489 604.33 280.052 600.307C277.487 596.073 274.067 592.769 269.792 590.205C261.073 584.978 250.53 583.038 242.079 577.349C241.733 577.115 242.182 576.593 242.535 576.725C248.255 578.854 254.439 580.028 260.394 581.606L261.567 581.919C266.274 583.181 271.053 584.595 275.116 587.061C279.645 589.809 283.2 593.469 285.859 598.009C288.479 602.484 290.137 607.643 291.971 612.537L292.463 613.84C293.202 615.794 293.968 617.74 294.848 619.623C295.546 621.117 296.858 622.764 297.446 624.496C299.098 624.021 300.748 623.547 302.401 623.081C338.198 613.02 374.376 605.31 410.615 600.007C412.032 599.798 412.756 601.029 412.537 602.258C408.903 622.697 405.658 643.158 402.11 663.602C400.561 672.524 398.985 681.443 397.37 690.363C396.554 694.882 395.614 699.398 394.84 703.918C394.213 707.569 393.75 711.227 392.696 714.847C391.749 718.092 390.313 721.283 387.971 723.95C385.448 726.827 381.945 728.488 378.423 729.496C369.484 732.053 360.322 733.753 351.315 735.818L303.355 746.82C304.007 752.937 304.012 759.032 303.641 765.343L303.432 768.787C303.26 771.559 303.059 774.339 302.633 777.112C302.096 780.592 300.469 783.677 298.084 786.512C295.893 789.115 293.239 791.429 290.657 793.651C287.979 795.959 285.211 798.207 282.07 799.811L281.662 800.015C278.907 801.387 273.738 803.618 269.988 803.472C270.459 805.81 271.39 808.273 270.529 810.744C270.129 811.892 268.647 812.616 267.748 811.787C265.97 810.144 265.85 807.708 265.443 805.336C265.02 802.87 264.66 800.385 264.341 797.89C263.724 793.065 263.254 788.179 263.136 783.255C263.016 778.197 263.118 773.106 263.438 768.002C263.603 765.379 263.802 762.754 264.162 760.127C264.315 759.006 264.471 757.885 264.649 756.763C264.714 756.354 264.785 755.947 264.861 755.54L260.557 756.524C253.957 758.024 247.355 759.455 240.713 760.345C239.926 760.449 239.324 760.173 238.933 759.712C238.506 760.431 237.768 760.995 236.717 761.116C227.443 762.185 218.829 760.258 210.422 757.778C206.183 756.529 202.012 755.125 197.766 753.891C193.806 752.739 189.565 752.085 185.7 750.716L175.466 757.134C175.391 757.399 175.293 757.653 175.19 757.866C174.515 759.265 173.202 760.136 171.861 760.833C170.575 761.505 169.244 761.824 167.951 761.847C160.191 766.711 152.428 771.57 144.66 776.421L136.892 781.269C121.412 790.921 105.993 800.693 90.4176 810.172L89.2711 810.867C83.8915 814.122 78.1164 817.458 72.1537 820.145C72.0364 821.622 72.0921 823.04 72.2061 824.578L72.2338 824.912C72.3967 826.724 72.7589 828.978 71.2383 830.463C70.4474 831.235 69.0438 831.405 68.5175 830.444C67.5625 828.704 68.4559 825.672 68.7788 823.619C68.8934 822.889 69.0319 822.137 69.2341 821.398C62.4007 824.185 55.3686 825.978 48.4392 825.691C41.6926 825.414 36.4931 821.892 32.315 817.322C27.9055 812.501 24.791 806.641 23.146 800.16C21.274 792.783 21.2094 784.944 21.3154 777.149C21.4285 768.847 21.8086 760.473 22.909 752.111C21.776 751.985 20.5191 751.909 19.3715 752.124C18.7965 753.076 17.6916 753.581 16.6968 753.583C14.5133 756.167 19.987 757.891 21.7375 758.278C22.3455 758.413 22.2726 759.385 21.5699 759.439L21.1273 759.472C18.4163 759.653 15.6178 759.534 14.0424 757.269C12.7799 755.454 13.1819 753.076 14.7178 751.291C15.7963 741.905 18.272 732.598 20.5812 723.293C22.8473 714.16 25.3592 705.055 28.0173 695.979L29.2087 691.916C33.3933 677.679 37.7631 663.311 43.4902 649.439C46.3499 642.512 49.6358 635.654 54.0659 629.386C58.1953 623.539 63.0572 618.381 68.6351 613.806C79.0337 605.275 91.2029 599.42 103.159 593.8L103.694 593.549C109.889 590.637 116.07 587.703 122.197 584.618C127.615 581.89 132.811 578.631 138.205 575.875C138.032 575.588 137.867 575.294 137.705 574.998L137.607 575.092C137.59 575.107 137.571 575.122 137.554 575.135C137.011 575.564 136.215 575.479 135.773 575.123C134.524 574.116 134.96 572.782 135.809 571.483L135.919 571.318C136.958 569.795 137.885 568.203 138.845 566.639L139.445 565.661C141.055 563.044 142.747 560.404 144.884 558.146C145.875 557.101 146.955 556.277 148.099 555.624C148.004 555.434 148.86 554.924 149.102 555.101C152.723 553.384 156.875 553.16 160.81 553.048M301.035 747.352L296.011 748.506C290.481 749.775 284.951 751.021 279.42 752.265L267.408 754.961C267.372 755.632 267.282 756.293 267.263 756.799C267.166 759.402 267.087 762.005 267.011 764.608C266.859 769.824 266.941 775.018 267.252 780.169C267.554 785.161 267.962 790.14 268.622 795.055L268.757 796.037L268.836 796.553C269.404 796.539 269.962 796.735 270.422 797.222C271.428 798.282 275.113 796.698 276.554 796.028C278.921 794.93 281.154 793.284 283.217 791.654C285.232 790.061 287.048 788.268 288.795 786.399L290.224 784.865C291.645 783.332 293.069 781.708 293.948 779.887C295.138 777.42 295.312 774.542 295.675 771.964C296.123 768.793 296.652 765.613 297.209 762.443M155.545 731.908L155.022 732.104C136.067 739.248 117.139 746.532 98.1271 753.465C88.7188 756.898 79.267 760.166 69.8474 763.554L68.3224 764.107C60.891 766.815 53.3678 769.903 47.647 775.817C47.4359 776.035 47.1337 775.776 47.3327 775.547C53.5037 768.473 62.2308 764.752 70.608 761.429C72.1566 760.815 73.707 760.211 75.256 759.598C63.9184 757.002 52.3976 754.94 40.6023 753.894C37.5652 753.625 34.4911 753.528 31.4563 753.255C29.3398 753.065 27.2743 752.673 25.181 752.392L23.5342 752.183L23.4727 757.266C23.389 764.462 23.3458 771.649 23.6664 778.796L23.7274 780.121C24.1045 788.073 24.7269 796.161 27.5842 803.362C29.9063 809.213 33.6386 814.543 38.5435 818.423C41.0254 820.386 43.699 821.827 47.0141 822.302C50.092 822.742 53.3228 822.451 56.4952 821.86C71.7119 819.019 85.3128 809.364 98.5759 801.132C120.27 787.668 141.966 774.21 163.682 760.785C163.099 760.464 162.553 760.08 162.056 759.635C159.179 757.063 157.679 753.25 156.705 749.501C155.666 745.512 155.062 741.175 155.02 736.932M182.801 762.715C182.994 762.592 183.213 762.692 183.221 762.9C183.275 764.502 182.349 766.198 181.656 767.727L181.583 767.892C180.741 769.785 179.819 771.664 178.866 773.519C176.963 777.227 174.987 780.905 172.927 784.544C168.782 791.865 164.185 798.954 158.764 805.544C157.539 807.034 155.556 805.545 156.347 804.006C160.157 796.581 164.586 789.471 169.143 782.404C171.425 778.867 173.706 775.324 176.01 771.798C176.97 770.326 177.945 768.859 178.944 767.408L179.545 766.54M408.187 604.288C389.2 607.101 370.23 610.559 351.322 614.694C333.738 618.538 316.213 622.957 298.783 627.942C295.142 628.983 291.507 630.048 287.875 631.137L285.697 631.795C282.063 632.896 277.63 633.697 274.386 635.969C270.966 638.363 270.012 642.63 268.852 646.195C267.489 650.387 266.16 654.585 264.865 658.789C259.723 675.482 255.014 692.263 250.8 709.093C248.707 717.446 246.843 725.819 244.883 734.186C243.141 741.621 241.225 748.994 239.228 756.387C239.468 756.177 239.763 756.005 240.118 755.888C249.78 752.743 259.633 750.705 269.432 748.438L270.38 748.217C280.518 745.853 290.656 743.499 300.799 741.185L367.954 725.864C371.913 724.962 376.154 724.399 380.013 722.908C386.574 720.37 388.165 713.057 389.307 707.249L389.342 707.075C392.787 689.526 395.558 671.908 398.783 654.342M240.945 736.258C238.342 736.401 234.793 734.502 232.817 734.902C233.841 736.474 234.293 738.353 233.68 740.49C231.97 746.434 224.467 744.354 220.856 743.03C217.896 741.942 215.04 740.521 211.755 740.237C208.033 739.917 205.496 741.66 202.333 743.699C199.737 745.372 196.912 746.69 194.01 747.542C192.468 747.994 191.004 748.197 189.546 748.266C189.457 748.346 189.356 748.423 189.243 748.493L188.468 748.981C191.96 748.721 195.51 749.347 198.753 749.924C202.114 750.519 205.413 751.327 208.693 752.162L211.919 752.99C219.878 755.019 228.119 756.865 236.758 755.814C237.38 755.739 237.887 755.845 238.286 756.071M226.51 719.983C229.087 719.371 231.459 719.417 233.502 720.804C235.967 722.477 237.608 725.542 241.171 725.333C242.21 725.272 242.442 726.668 241.406 727.087C238.746 728.167 236.609 727.025 234.813 725.424L233.608 724.332C231.836 722.742 230.199 721.545 227.166 722.011C223.917 722.512 220.659 723.63 217.431 724.386C213.772 725.24 210.116 726.033 206.448 726.779C206.278 726.813 206.25 726.555 206.41 726.497L210.523 725.014M224.107 710.031L224.531 709.938C228.271 709.141 231.689 708.722 235.011 710.283L235.648 710.585C238.643 712.008 241.903 713.718 243.762 716.378C244.067 716.814 243.552 717.43 243.039 717.371C239.429 716.955 236.805 714.684 233.779 713.111C230.382 711.346 226.854 712.122 222.959 712.922C219.189 713.696 215.419 714.593 211.682 715.648C208.171 716.639 204.649 717.964 201.104 718.673L201.104 718.667C200.699 718.713 200.474 718.148 200.888 717.9C204.497 715.725 208.665 714.402 212.58 713.14M337.913 660.568C337.565 658.928 339.697 657.894 340.671 659.112L340.878 659.369C342.986 661.956 346.035 665.153 345.85 668.783C347.72 668.601 349.651 669.478 350.367 671.036C350.698 671.757 350.806 672.644 350.723 673.586C352.422 673.512 354.269 674.379 355.3 675.315C357.009 676.865 357.125 679.329 355.874 681.526C353.143 686.316 347.243 688.642 342.269 689.595L342.092 689.629C336.956 690.583 329.56 691.369 326.074 687.497C322.71 683.762 326.489 679.967 330.352 677.691C329.357 676.919 328.848 675.703 329.346 674.297C330.221 671.829 333.252 670.555 334.975 668.705C337.073 666.45 338.471 663.533 337.944 660.722M340.707 663.872C340.122 666.335 338.713 668.691 336.764 670.658C336.017 671.411 335.203 672.098 334.338 672.708L334.234 672.779C333.466 673.288 331.583 674.294 331.72 675.213C331.862 676.16 334.908 677.304 335.742 677.205C335.932 677.182 336.037 677.459 335.843 677.564C334.327 678.395 333.005 678.83 331.532 678.318C330.536 679.418 329.57 680.548 328.611 681.667C326.917 683.649 327.479 685.463 329.453 686.553C332.626 688.306 337.476 687.679 341.198 687.081C344.944 686.48 348.956 685.192 351.901 682.414L352.028 682.291C353.63 680.725 355.1 678.216 352.676 677.18C351.725 676.773 350.695 676.926 349.791 676.781C348.931 678.501 347.548 679.958 345.869 680.408C344.511 680.771 343.59 679.223 344.83 678.283L345.108 678.081C346.663 676.935 347.997 675.296 347.976 673.37C347.964 672.032 346.055 670.567 344.792 671.975L344.736 672.042C343.68 673.316 341.845 672.087 342.545 670.731L342.577 670.669M96.9134 626.257C96.9109 625.97 97.3275 625.812 97.4708 626.044C99.8696 629.923 101.101 634.878 102.36 639.315C103.679 643.962 104.737 648.691 105.682 653.467C107.598 663.138 108.582 672.862 108.576 682.954C108.574 684.394 106.16 685.063 105.935 683.614C104.446 673.977 103.022 664.322 101.52 654.689C100.765 649.844 99.8793 645.035 99.0333 640.215M120.929 630.654C120.754 630.101 121.614 629.807 121.83 630.307C126.618 641.393 128.168 654.419 124.939 667.098C124.445 669.038 121.62 668.559 121.996 666.657M183.953 612.81C183.932 612.382 184.505 612.246 184.72 612.518C187.007 615.416 187.932 619.551 191.976 620.71C193.996 621.286 196.275 620.875 198.055 622.044C199.244 622.826 200.149 624.178 199.24 625.686C198.947 626.173 198.135 626.495 197.745 626.05C197.177 625.402 196.88 624.58 196.105 624.135C195.013 623.508 193.529 623.639 192.272 623.431C190.645 623.165 189.215 622.53 188.047 621.473M222.994 555.297C223.234 555.15 223.461 555.2 223.612 555.381C223.828 555.641 223.8 555.923 223.531 556.151C223.881 556.817 224.289 558.543 224.346 558.795C224.582 559.812 224.832 560.823 225.095 561.832C225.625 563.866 226.088 565.925 226.618 567.959C227.181 570.116 227.855 572.236 228.608 574.315C228.656 574.449 228.709 574.587 228.765 574.725L228.851 574.935L228.872 574.899C229.03 574.641 229.355 574.769 229.315 575.028C229.278 575.263 229.227 575.5 229.186 575.738L229.263 575.935C229.757 577.194 230.089 578.543 229.158 579.815C228.809 580.292 228.427 580.594 227.954 580.727C227.176 583.254 226.204 585.759 225.166 588.178L224.863 588.884C223.336 592.414 221.712 595.911 219.302 599.049C216.669 602.474 213.065 605.027 210.768 608.711C209.699 610.424 208.952 612.181 208.341 614.045L208.109 614.752C207.678 616.071 207.178 617.359 205.95 618.249C205.559 618.532 204.976 618.526 204.664 618.239C202.179 615.955 204.84 610.825 206.37 608.147C208.497 604.421 211.553 601.838 214.617 598.855C217.919 595.638 220.041 591.609 222.092 587.645C223.351 585.217 224.565 582.743 225.843 580.304C224.535 579.325 224.131 577.126 223.699 575.613L223.658 575.478C222.942 573.06 222.376 570.559 222.025 568.022C221.689 565.581 221.559 563.152 221.673 560.645L221.706 560.006M227.798 566.53C227.509 566.178 227.994 565.68 228.393 565.714C230.814 565.913 233.176 567.061 235.344 567.96L235.574 568.055C237.305 568.761 239.046 569.672 239.945 571.338C240.923 573.147 240.822 575.377 240.672 577.487L240.658 577.685C240.472 580.218 240.426 582.83 239.86 585.362C239.57 586.657 238.394 587.152 237.392 586.973C236.17 590.788 232.793 593.893 230.321 597.083C227.166 601.148 227.716 606.067 228.007 610.48C228.125 612.266 225.82 613.051 224.643 612.231L221.928 610.345C221.477 610.03 221.026 609.715 220.575 609.397C220.19 609.126 219.808 608.851 219.428 608.572L218.864 608.15C218.613 607.96 217.508 606.88 217.182 606.868C216.394 606.841 214.503 609.087 213.856 609.8L213.774 609.888C212.558 611.185 211.456 612.556 210.431 613.993C210.241 614.257 209.877 614.101 210.013 613.804C210.939 611.797 212.012 609.854 213.283 608.003L213.54 607.636C214.384 606.438 215.524 604.365 217.003 603.865C218.808 603.255 220.596 604.803 221.899 605.624L221.981 605.677C222.603 606.059 223.217 606.449 223.829 606.844C223.789 603.537 224.247 600.138 226.024 597.075C227.279 594.913 229.145 593.202 230.746 591.283C232.529 589.146 233.47 586.667 235.087 584.472C235.294 584.189 235.579 584.015 235.889 583.935C235.961 582.314 236.219 580.655 236.42 579.038L236.478 578.553C236.682 576.796 237.148 574.625 236.289 573.104C235.478 571.669 233.598 570.81 232.207 569.937L231.071 569.209M149.205 557.55C148.471 558.048 147.783 558.64 147.159 559.354C145.194 561.6 143.781 564.272 142.405 566.846C141.664 568.231 140.949 569.627 140.203 571.011C139.878 571.613 139.545 572.21 139.207 572.807C139.052 573.082 138.591 573.646 138.36 573.986C138.61 574.301 138.867 574.607 139.132 574.911C139.231 575.028 146.168 581.616 148.582 584.231C152.282 588.237 155.582 592.539 158.395 597.229C161.149 601.824 163.237 606.785 165.785 611.499C167.061 613.859 168.487 616.182 170.316 618.138C170.385 618.215 170.459 618.287 170.532 618.361C171.251 616.426 173.068 614.23 173.964 612.986L174.048 612.868C176.076 609.993 178.218 607.183 180.405 604.41C182.402 601.88 184.45 599.393 186.546 596.937L187.334 596.017C188.796 594.319 190.653 591.822 192.782 590.481C192.557 590.112 192.297 589.755 191.998 589.405C190.031 587.111 187.236 585.61 184.479 584.283L182.689 583.432C175.947 580.216 169.31 576.803 163.47 572.276C160.381 569.881 157.336 567.351 154.746 564.436L153.828 563.406M160.522 554.216C157.347 554.852 153.923 555.198 150.983 556.553C153.57 558.643 156.028 560.939 158.553 563.077C158.794 561.4 159.27 559.715 159.674 558.059" fill="black"/>
<path fill-rule="evenodd" clip-rule="evenodd" d="M190.713 373.476C213.435 370.702 236.799 385.512 245.039 395.777C251.968 404.407 255.404 446.839 255.177 475.826C255.13 481.887 258.372 492.909 257.355 498.826C253.624 520.511 237.957 540.229 207.225 543.982C176.493 547.734 154.554 538.196 131.969 508.153C120.886 509.507 115.581 501.63 115.608 488.176C115.636 474.719 126.45 468.505 126.45 468.505C126.45 468.505 123.023 415.838 132.808 400.822C142.592 385.806 167.991 376.251 190.713 373.476Z" fill="white"/>
<path fill-rule="evenodd" clip-rule="evenodd" d="M181.162 366.987C195.523 363.774 209.576 363.282 223.698 364.092C224.777 364.157 225.385 364.794 225.606 365.623C232.263 365.115 238.928 364.791 245.578 364.344C247.991 364.182 249.342 366.411 248.224 368.709C248.001 369.166 247.768 369.612 247.534 370.059L247.825 369.927C249.832 369.037 251.997 368.455 253.938 369.241C256.41 370.24 257.36 372.997 256.791 375.71C256.646 376.402 256.404 377.079 256.132 377.743C256.676 377.641 257.223 377.586 257.769 377.591C260.662 377.624 262.799 379.592 262.928 382.546C263.118 387.006 260.204 391.91 256.788 395.538C257.273 396.495 257.451 397.671 257.237 398.91C256.811 401.361 255.039 403.014 252.991 404.201C253.821 406.812 254.2 409.601 253.941 412.531C253.854 413.509 253.004 414.412 252.112 414.717C255.358 423.487 256.96 433.132 258.092 442.583C258.898 449.307 259.269 456.124 259.269 462.998C259.269 466.1 259.193 469.218 259.04 472.341L258.978 473.512C258.791 476.89 258.756 480.417 258.129 483.812C260.152 487.065 260.942 491.312 261.26 495.193C261.654 499.998 260.931 505.094 259.37 509.9C253.477 528.065 236.019 541.207 218.548 546.203C202.375 550.827 183.714 549.543 174.39 535.957C174.244 535.741 174.562 535.51 174.744 535.642C181.454 540.333 189.269 541.836 197.769 541.995C212.469 542.265 229.035 536.738 240.915 525.996C246.619 520.839 250.756 513.842 252.609 506.627C253.554 502.942 253.9 499.174 253.567 495.54C253.228 491.852 251.608 488.867 250.6 485.468C250.26 484.319 250.636 483.169 251.366 482.293C251.593 479.404 252.097 476.457 252.303 473.58C252.531 470.309 252.682 467.05 252.751 463.794C252.889 457.044 252.661 450.326 252.149 443.683C251.212 431.519 248.564 419.862 247.049 407.873C246.45 408.482 245.594 408.807 244.703 408.447L244.611 408.408L244.124 408.186C244.096 408.19 244.063 408.198 244.035 408.205C240.692 408.939 237.228 408.896 234.034 408.286C230.691 407.65 227.594 406.421 224.833 404.617C224.284 407.372 224.041 410.118 224.017 412.86C223.998 414.574 222.188 415.684 220.759 415.127C214.432 412.662 208.394 409.667 202.667 406.173C201.965 409.718 201.268 413.262 200.562 416.811C200.292 418.178 198.594 418.924 197.515 418.421C193.221 416.426 189.52 413.581 186.515 410.026C185.902 411.264 185.284 412.502 184.663 413.737L183.729 415.589C182.806 417.41 181.575 419.449 179.581 420.238C177.472 421.075 175.724 419.919 175.032 418.09C174.819 417.522 174.625 416.935 174.446 416.342C172.62 420.676 170.563 424.945 168.244 429.061C164.764 435.235 160.601 440.866 156.449 446.629C155.187 448.378 153.062 447.115 152.902 445.584C152.809 444.684 152.732 443.777 152.668 442.872C150.233 448.022 147.696 453.138 144.937 458.142L145.315 459.629C146.403 464.028 147.3 468.482 148.28 472.917C148.594 474.348 147.801 476.547 146.088 477.005C144.041 477.556 142.099 478.841 140.013 478.375C137.736 477.866 137.3 475.939 136.237 474.192C136.024 473.844 135.776 473.53 135.51 473.238L135.441 473.333C135.271 473.577 134.873 473.384 134.975 473.119L135.095 472.811C134.176 471.937 133.075 471.248 132.063 470.488C129.646 470.373 126.919 471.154 125.243 472.348C121.427 475.063 119.646 479.917 119.576 484.189C119.493 489.19 120.99 494.615 123.559 498.567C124.689 500.307 126.245 501.81 128.312 502.39C130.363 502.967 132.595 502.437 134.681 502.962C136.062 503.312 136.903 504.751 136.056 506.254C135.999 506.356 135.934 506.453 135.874 506.553L136.489 507.307C136.913 507.829 137.355 508.391 137.767 508.982C138.822 510.081 139.933 511.131 141.009 512.209C142.996 514.196 144.924 516.251 146.879 518.272C148.724 520.182 150.677 521.947 152.691 523.674C154.594 525.31 156.977 526.589 158.721 528.37C160.419 530.107 160.858 533.447 158.03 534.918C154.902 536.549 152.166 533.958 150.082 532.262L149.993 532.191C146.175 529.105 142.732 525.465 140.006 521.327C137.26 523.529 133.304 524.191 130.598 522.655C129.173 521.846 128.088 520.327 127.567 518.596C127.063 518.77 126.559 518.898 126.069 518.95C125.815 519.129 125.56 519.303 125.303 519.468C123.265 520.777 120.775 520.608 119.864 518.465C119.035 516.519 119.924 514.085 120.702 512.019L120.862 511.593C121.303 510.414 121.789 509.13 122.39 507.903C120.751 506.858 119.354 505.481 118.175 503.867C114.214 498.423 112.281 489.993 113.221 482.808C113.786 478.471 115.818 473.803 119.111 470.525L118.994 470.226C118.095 468.001 117.281 465.758 116.76 463.355C116.15 460.545 115.865 457.59 115.608 454.685C115.064 448.548 115.274 442.178 116.111 435.897C117.683 424.073 121.527 412.185 128.267 401.683C126.395 399.641 124.919 397.15 125.723 393.978C126.091 392.523 126.914 391.085 128.145 390.126C128.825 389.598 129.631 389.431 130.31 388.979L130.514 388.841C130.813 388.631 130.585 388.677 130.414 387.889C129.739 384.741 130.344 381.545 133.895 380.039C137.237 378.622 140.375 380.38 142.328 382.693C147.521 378.382 154.34 375.624 160.338 373.256C167.157 370.571 174.146 368.56 181.162 366.987ZM124.538 482.264C124.534 479.633 127.032 477.705 129.475 477.836C131.115 477.922 132.478 478.741 133.757 479.601L134.38 480.023C135.937 481.067 137.725 482.179 138.645 483.816C139.995 486.23 137.074 490.058 134.387 488.579C132.542 487.557 131.37 485.703 130.169 483.994L130.044 483.817C129.498 483.053 129.021 482.227 128.269 481.652L128.107 481.527C127.86 481.345 127.594 481.183 127.274 481.131C126.655 481.028 125.505 481.418 125.226 482.193L125.201 482.272C125.098 482.657 124.539 482.646 124.538 482.264Z" fill="black"/>
<path fill-rule="evenodd" clip-rule="evenodd" d="M227.848 508.287C225.136 509.655 221.941 510.284 219.157 509.729C216.496 509.196 214.088 507.593 212.64 505.386C211.352 503.419 210.827 500.966 211.618 498.363C211.655 498.239 211.776 498.146 211.891 498.103C212.518 498.592 212.904 499.107 213.29 499.618C213.939 500.481 214.589 501.334 215.488 502.031C216.793 503.045 218.558 503.783 220.314 503.887C222.033 503.989 223.798 503.505 225.345 502.511C226.287 501.906 227.05 501.156 227.806 500.406C228.628 499.588 229.439 498.759 230.567 498.219C231.473 497.784 232.417 497.945 233.143 498.405C233.92 498.896 234.475 499.746 234.435 500.708C234.377 502.199 233.705 503.518 232.738 504.656C231.43 506.194 229.586 507.41 227.848 508.287ZM224.929 471.646C227.922 473.083 232.472 476.725 229.202 481.569C225.363 485.955 219.914 482.108 217.228 480.393C214.735 479.115 211.887 483.513 214.199 485.078C233.613 496.952 241.74 470.103 226.467 469.352C224.785 469.268 224.145 471.185 224.929 471.646ZM193.488 450.531C197.588 449.847 201.186 451.224 205.086 451.579C208.691 451.907 212.252 451.024 215.77 449.637C221.481 447.384 223.769 455.678 218.136 458.022C214.033 459.73 209.723 460.331 205.527 460.206C201.801 460.095 198.687 458.684 195.138 458.071C192.092 457.545 188.498 458.345 185.271 459.151L184.018 459.467C182.157 459.936 180.285 460.407 178.44 460.985C176.839 461.487 175.239 462.246 173.608 462.507C173.423 462.537 173.269 462.32 173.387 462.148C175.302 459.364 178.969 456.908 181.883 455.215L182.082 455.1C185.678 453.027 189.494 451.196 193.488 450.531ZM191.838 469.568L191.837 469.481C191.862 466.982 193.387 461.104 197.042 460.666C199.327 460.392 200.685 464.106 200.893 468.078L200.899 468.24C200.987 470.713 200.251 476.233 196.917 476.632C193.552 477.035 191.852 472.094 191.838 469.568ZM245.671 463.12L245.672 463.033C245.685 460.536 244.25 455.012 240.595 455.449C238.368 455.716 236.965 459.57 236.644 463.496L236.621 463.799C236.459 466.219 237.063 471.824 240.47 471.416C243.837 471.012 245.615 465.655 245.671 463.12ZM245.786 441.228L246.048 441.203C250.319 440.837 254.696 442.799 255.804 446.842C255.86 447.052 255.588 447.231 255.427 447.101C251.938 444.288 247.189 447.944 243.658 449.986L242.362 450.727C237.81 453.345 232.633 456.402 227.608 455.459C225.223 455.011 223.722 452.777 224.424 450.255C225.048 448.011 227.728 445.867 230.031 446.374L230.134 446.399C232.005 446.88 234.318 445.888 236.26 444.952L237.857 444.173C240.423 442.912 243.003 441.536 245.786 441.228Z" fill="black"/>
<path d="M129.64 138.878L135.568 87.236H163.384L148.108 170H113.11L105.358 123.83L96.352 170H62.836L47.56 87.236H75.376L81.19 138.194L90.31 87.236H120.748L129.64 138.878ZM199.374 149.138C228.254 148.986 249.192 148.568 262.188 147.884C261.656 151 261.314 154.23 261.162 157.574C261.086 160.842 261.048 164.984 261.048 170H172.47C173.078 155.256 173.382 141.462 173.382 128.618C173.382 115.774 173.078 101.98 172.47 87.236H261.048V107.87H199.374V118.814C203.022 118.89 208.418 118.928 215.562 118.928C227.646 118.928 240.148 118.7 253.068 118.244V137.852C240.148 137.396 227.646 137.168 215.562 137.168C208.418 137.168 203.022 137.206 199.374 137.282V149.138ZM338.134 128.846C355.462 128.846 364.126 134.356 364.126 145.376C364.126 150.544 362.948 154.952 360.592 158.6C358.236 162.172 354.018 164.984 347.938 167.036C341.858 169.012 333.422 170 322.63 170H271.33C271.938 155.256 272.242 141.462 272.242 128.618C272.242 115.774 271.938 101.98 271.33 87.236H298.12V87.35H322.402C331.826 87.35 339.236 88.148 344.632 89.744C350.104 91.264 353.942 93.506 356.146 96.47C358.426 99.434 359.566 103.196 359.566 107.756C359.566 112.392 357.932 116.534 354.664 120.182C351.472 123.754 345.962 126.642 338.134 128.846ZM298.12 108.098V118.7H320.008C324.72 118.7 327.988 118.282 329.812 117.446C331.712 116.61 332.662 115.09 332.662 112.886C332.662 111.138 331.674 109.922 329.698 109.238C327.798 108.478 324.568 108.098 320.008 108.098H298.12ZM320.008 149.138C323.96 149.138 326.962 148.986 329.014 148.682C331.142 148.302 332.662 147.694 333.574 146.858C334.486 145.946 334.942 144.73 334.942 143.21C334.942 141.234 333.84 139.828 331.636 138.992C329.508 138.08 325.632 137.624 320.008 137.624H298.12V149.138H320.008ZM114.364 293.846C131.692 293.846 140.356 299.356 140.356 310.376C140.356 315.544 139.178 319.952 136.822 323.6C134.466 327.172 130.248 329.984 124.168 332.036C118.088 334.012 109.652 335 98.86 335H47.56C48.168 320.256 48.472 306.462 48.472 293.618C48.472 280.774 48.168 266.98 47.56 252.236H74.35V252.35H98.632C108.056 252.35 115.466 253.148 120.862 254.744C126.334 256.264 130.172 258.506 132.376 261.47C134.656 264.434 135.796 268.196 135.796 272.756C135.796 277.392 134.162 281.534 130.894 285.182C127.702 288.754 122.192 291.642 114.364 293.846ZM74.35 273.098V283.7H96.238C100.95 283.7 104.218 283.282 106.042 282.446C107.942 281.61 108.892 280.09 108.892 277.886C108.892 276.138 107.904 274.922 105.928 274.238C104.028 273.478 100.798 273.098 96.238 273.098H74.35ZM96.238 314.138C100.19 314.138 103.192 313.986 105.244 313.682C107.372 313.302 108.892 312.694 109.804 311.858C110.716 310.946 111.172 309.73 111.172 308.21C111.172 306.234 110.07 304.828 107.866 303.992C105.738 303.08 101.862 302.624 96.238 302.624H74.35V314.138H96.238ZM215.659 274.922C206.615 274.466 199.927 274.2 195.595 274.124V313.112C200.003 313.036 206.691 312.77 215.659 312.314V335H149.425V312.314C158.165 312.77 164.815 313.036 169.375 313.112V274.124C164.815 274.2 158.165 274.466 149.425 274.922V252.236H215.659V274.922ZM252.61 311.972C274.65 311.82 292.89 311.44 307.33 310.832C306.342 314.708 305.734 318.432 305.506 322.004C305.278 325.576 305.164 329.908 305.164 335H224.794C225.402 320.256 225.706 306.462 225.706 293.618C225.706 280.774 225.402 266.98 224.794 252.236H252.61V311.972ZM342.007 311.972C364.047 311.82 382.287 311.44 396.727 310.832C395.739 314.708 395.131 318.432 394.903 322.004C394.675 325.576 394.561 329.908 394.561 335H314.191C314.799 320.256 315.103 306.462 315.103 293.618C315.103 280.774 314.799 266.98 314.191 252.236H342.007V311.972ZM432.718 314.138C461.598 313.986 482.536 313.568 495.532 312.884C495 316 494.658 319.23 494.506 322.574C494.43 325.842 494.392 329.984 494.392 335H405.814C406.422 320.256 406.726 306.462 406.726 293.618C406.726 280.774 406.422 266.98 405.814 252.236H494.392V272.87H432.718V283.814C436.366 283.89 441.762 283.928 448.906 283.928C460.99 283.928 473.492 283.7 486.412 283.244V302.852C473.492 302.396 460.99 302.168 448.906 302.168C441.762 302.168 436.366 302.206 432.718 302.282V314.138ZM596.922 276.176C584.99 275.796 573.4 275.568 562.152 275.492V335H533.652V275.492C522.328 275.568 510.776 275.796 498.996 276.176V252.236H596.922V276.176Z" fill="black"/>
</svg>
