<svg xmlns="http://www.w3.org/2000/svg" width="866" height="866" fill="none" viewBox="0 0 866 866"><circle cx="433" cy="433" r="433" fill="url(#paint0_radial_1520_20)"/><path fill="#DBDBDB" d="M279.193 667.86C275.051 712.421 290.592 754.268 318.668 784.775C346.466 687.694 399.569 602.298 469.798 535.382C461.542 533.154 452.984 531.597 444.18 530.779C360.819 523.029 286.952 584.403 279.193 667.86Z"/><path fill="#8FC0FF" d="M432.5 710C474.979 710 515.221 700.421 551.184 683.304C535.057 687.031 518.259 689 501 689C378.393 689 279 589.607 279 467C279 462.771 279.118 458.569 279.352 454.398C258.696 415.321 247 370.776 247 323.5C247 282.591 255.757 243.728 271.5 208.683C201.561 258.857 156 340.858 156 433.5C156 586.207 279.793 710 432.5 710Z"/><path fill="#F8F8F8" d="M279 467C279 589.607 378.393 689 501 689C518.259 689 535.057 687.031 551.184 683.304C605.923 657.251 650.746 613.735 678.451 559.96C634.871 587.839 583.073 604 527.5 604C419.86 604 326.382 543.37 279.352 454.398C279.118 458.569 279 462.771 279 467Z"/><path fill="#1470E9" d="M702.53 373.761C675.223 249.772 564.696 157 432.5 157C372.435 157 316.844 176.152 271.5 208.683C255.757 243.728 247 282.591 247 323.5C247 370.776 258.696 415.321 279.352 454.398C285.885 337.654 382.622 245 501 245C590.306 245 667.296 297.734 702.53 373.761Z"/><circle cx="510" cy="642" r="21" fill="#000"/><defs><radialGradient id="paint0_radial_1520_20" cx="0" cy="0" r="1" gradientTransform="translate(433 433) rotate(90) scale(433)" gradientUnits="userSpaceOnUse"><stop stop-color="#00D1FF"/><stop offset="1" stop-color="#00A3FF"/></radialGradient></defs></svg>