<svg xmlns="http://www.w3.org/2000/svg" xmlns:xlink="http://www.w3.org/1999/xlink" id="layer" x="0" y="0" version="1.1" viewBox="0 0 652 652" style="enable-background:new 0 0 652 652" xml:space="preserve"><style type="text/css">.st0{fill:#f1465a}</style><path d="M337.5,175.7c25.8,0,46.7,20.9,46.7,46.7S363.3,269,337.5,269c-25.8,0-46.7-20.9-46.7-46.7	S311.7,175.7,337.5,175.7z M254.7,175.7h22.8v124.6h-22.8V175.7z" class="st0"/><path d="M22,385.5h33.2c17.6,0,28.9,13.3,28.9,28.7c0,15.4-11.3,28.7-28.9,28.7H40.4v22H22V385.5L22,385.5z M65.6,414.2	c0-7.4-5-13.7-12.7-13.7H40.4v27.4h12.6C60.6,427.9,65.6,421.6,65.6,414.2z M154.3,464.9l-3.1-9.6h-28.2l-3.1,9.6h-19.6l28.3-79.3	h16.9l28.7,79.3H154.3L154.3,464.9z M137.2,408.2l-9.7,32.6h19.3L137.2,408.2L137.2,408.2z M205.1,401.4h-17.9v-15.8h54.2v15.8h-18	v63.5h-18.4L205.1,401.4C205.1,401.4,205.1,401.4,205.1,401.4z M270,385.6h33.3c17.6,0,28.9,13.2,28.9,28.7c0,11.1-5.9,21-15.8,25.6	l15.9,25H311l-14-22h-8.6v22H270C270,464.9,270,385.6,270,385.6z M313.6,414.2c0-7.4-5-13.7-12.7-13.7h-12.6v27.4h12.6	C308.6,427.9,313.6,421.6,313.6,414.2z M381.7,400.3v18h30v14.4h-30v17.4h30v14.7h-48.4v-79.3h48.4v14.7	C411.7,400.3,381.7,400.3,381.7,400.3z M441.5,425.2c0-21.8,15.6-41.7,42-41.7c26.3,0,41.9,19.9,41.9,41.7s-15.6,41.7-41.9,41.7	C457.2,466.9,441.5,447,441.5,425.2z M506.8,425.2c0-13-8.8-25.1-23.2-25.1c-14.5,0-23.2,12.1-23.2,25.1c0,13,8.7,25.1,23.2,25.1	C498,450.4,506.8,438.2,506.8,425.2L506.8,425.2z M603.8,437.2v-51.7H622v79.3h-19.1l-28.6-51v51h-18.4v-79.3h19.2L603.8,437.2	L603.8,437.2z" class="st0"/></svg>