<svg width="450" height="450" viewBox="0 0 450 450" fill="none" xmlns="http://www.w3.org/2000/svg">
<rect width="450" height="450" rx="100" fill="#0C1A43"/>
<path d="M147.902 312.963C145.989 333.545 153.167 352.874 166.135 366.965C178.975 322.124 203.503 282.68 235.941 251.772C232.128 250.743 228.175 250.024 224.108 249.646C185.604 246.067 151.486 274.415 147.902 312.963Z" fill="#DBDBDB"/>
<path d="M218.714 332.427C238.335 332.427 256.922 328.003 273.533 320.097C266.084 321.818 258.325 322.727 250.353 322.727C193.722 322.727 147.813 276.819 147.813 220.187C147.813 218.234 147.868 216.293 147.975 214.366C138.435 196.317 133.032 175.742 133.032 153.905C133.032 135.01 137.077 117.059 144.349 100.872C112.045 124.047 91 161.923 91 204.714C91 275.248 148.179 332.427 218.714 332.427Z" fill="#8FC0FF"/>
<path d="M147.813 220.187C147.813 276.819 193.722 322.727 250.353 322.727C258.325 322.727 266.084 321.818 273.533 320.097C298.817 308.063 319.52 287.963 332.317 263.125C312.188 276.002 288.262 283.467 262.594 283.467C212.875 283.467 169.698 255.462 147.975 214.366C147.868 216.293 147.813 218.234 147.813 220.187Z" fill="#F8F8F8"/>
<path d="M343.439 177.121C330.826 119.851 279.774 77 218.714 77C190.97 77 165.293 85.8463 144.349 100.872C137.077 117.059 133.032 135.01 133.032 153.905C133.032 175.742 138.435 196.317 147.975 214.366C150.993 160.443 195.675 117.647 250.353 117.647C291.603 117.647 327.165 142.004 343.439 177.121Z" fill="#1470E9"/>
<circle cx="254.509" cy="301.019" r="9.69977" fill="black"/>
<path d="M345.547 145.622C346.226 148.234 346.212 151.059 345.362 153.828C342.918 161.785 334.486 166.255 326.528 163.811C323.869 162.994 321.6 161.509 319.848 159.597C319.088 167.727 324.096 175.551 332.21 178.043C341.503 180.897 351.35 175.678 354.204 166.385C356.734 158.147 352.919 149.474 345.547 145.622Z" fill="url(#paint0_linear_1749_1838)"/>
<defs>
<linearGradient id="paint0_linear_1749_1838" x1="334.155" y1="149.625" x2="344.408" y2="179.079" gradientUnits="userSpaceOnUse">
<stop stop-color="#1A7DFF"/>
<stop offset="1" stop-color="#00A3FF"/>
</linearGradient>
</defs>
</svg>
