<svg width="56" height="61" viewBox="0 0 56 61" fill="none" xmlns="http://www.w3.org/2000/svg">
<path d="M12.1555 48.5701C11.7674 52.7448 13.2235 56.6653 15.8538 59.5234C18.4581 50.4282 23.4331 42.4277 30.0127 36.1586C29.2392 35.9499 28.4374 35.804 27.6126 35.7273C19.8027 35.0013 12.8824 40.7512 12.1555 48.5701Z" fill="#DBDBDB"/>
<path d="M26.5186 52.5177C30.4984 52.5177 34.2685 51.6202 37.6377 50.0166C36.1269 50.3658 34.553 50.5503 32.9361 50.5503C21.4495 50.5503 12.1377 41.2385 12.1377 29.7518C12.1377 29.3556 12.1488 28.962 12.1707 28.5712C10.2355 24.9102 9.13974 20.737 9.13974 16.3078C9.13974 12.4752 9.96018 8.83425 11.435 5.55097C4.88276 10.2516 0.614258 17.934 0.614258 26.6133C0.614258 40.9199 12.212 52.5177 26.5186 52.5177Z" fill="#8FC0FF"/>
<path d="M12.1377 29.7518C12.1377 41.2385 21.4495 50.5503 32.9361 50.5503C34.553 50.5503 36.1269 50.3658 37.6377 50.0166C42.766 47.5758 46.9653 43.499 49.561 38.461C45.4781 41.0728 40.6253 42.5869 35.4188 42.5869C25.3344 42.5869 16.5767 36.9067 12.1707 28.5712C12.1488 28.962 12.1377 29.3556 12.1377 29.7518Z" fill="#F8F8F8"/>
<path d="M51.8168 21.0166C49.2585 9.40044 38.9036 0.708984 26.5186 0.708984C20.8914 0.708984 15.6832 2.50328 11.435 5.55097C9.96018 8.83425 9.13974 12.4752 9.13974 16.3078C9.13974 20.737 10.2355 24.9102 12.1707 28.5712C12.7827 17.6338 21.8457 8.95341 32.9361 8.95341C41.3029 8.95341 48.5159 13.8938 51.8168 21.0166Z" fill="#1470E9"/>
<circle cx="33.7809" cy="46.1471" r="1.96742" fill="black"/>
<path d="M52.2444 14.6268C52.3821 15.1565 52.3794 15.7296 52.2069 16.2912C51.7112 17.9052 50.0009 18.8118 48.3868 18.3161C47.8475 18.1504 47.3872 17.8492 47.0318 17.4612C46.8776 19.1104 47.8935 20.6973 49.5393 21.2028C51.4242 21.7817 53.4214 20.723 54.0003 18.8382C54.5135 17.1672 53.7398 15.408 52.2444 14.6268Z" fill="url(#paint0_linear_1164_2150)"/>
<defs>
<linearGradient id="paint0_linear_1164_2150" x1="49.9338" y1="15.4387" x2="52.0134" y2="21.4128" gradientUnits="userSpaceOnUse">
<stop stop-color="#1A7DFF"/>
<stop offset="1" stop-color="#00A3FF"/>
</linearGradient>
</defs>
</svg>
